<?xml version="1.0" encoding="UTF-8" standalone="no"?>
<!-- Created with Inkscape (http://www.inkscape.org/) -->

<svg
   xmlns:dc="http://purl.org/dc/elements/1.1/"
   xmlns:cc="http://creativecommons.org/ns#"
   xmlns:rdf="http://www.w3.org/1999/02/22-rdf-syntax-ns#"
   xmlns:svg="http://www.w3.org/2000/svg"
   xmlns="http://www.w3.org/2000/svg"
   xmlns:sodipodi="http://sodipodi.sourceforge.net/DTD/sodipodi-0.dtd"
   xmlns:inkscape="http://www.inkscape.org/namespaces/inkscape"
   width="36"
   height="42"
   viewBox="0 0 36 42.000001"
   id="svg2"
   version="1.1"
   inkscape:version="0.91 r13725"
   sodipodi:docname="1.svg">
  <defs
     id="defs4" />
  <sodipodi:namedview
     id="base"
     pagecolor="#ffffff"
     bordercolor="#666666"
     borderopacity="1.0"
     inkscape:pageopacity="0.0"
     inkscape:pageshadow="2"
     inkscape:zoom="8.0000005"
     inkscape:cx="-11.845932"
     inkscape:cy="26.339129"
     inkscape:document-units="px"
     inkscape:current-layer="layer1"
     showgrid="true"
     units="px"
     inkscape:showpageshadow="false"
     inkscape:snap-bbox="true"
     inkscape:bbox-paths="true"
     inkscape:bbox-nodes="true"
     inkscape:snap-bbox-edge-midpoints="true"
     inkscape:snap-bbox-midpoints="true"
     inkscape:window-width="1680"
     inkscape:window-height="986"
     inkscape:window-x="0"
     inkscape:window-y="27"
     inkscape:window-maximized="1"
     inkscape:object-paths="true"
     inkscape:snap-intersection-paths="true"
     inkscape:object-nodes="true"
     inkscape:snap-smooth-nodes="true"
     inkscape:snap-midpoints="true"
     inkscape:snap-object-midpoints="true"
     inkscape:snap-center="true"
     inkscape:snap-text-baseline="true"
     inkscape:snap-page="true"
     inkscape:snap-grids="true"
     showguides="true"
     inkscape:guide-bbox="true"
     borderlayer="true">
    <inkscape:grid
       type="xygrid"
       id="grid4136" />
  </sodipodi:namedview>
  <metadata
     id="metadata7">
    <rdf:RDF>
      <cc:Work
         rdf:about="">
        <dc:format>image/svg+xml</dc:format>
        <dc:type
           rdf:resource="http://purl.org/dc/dcmitype/StillImage" />
        <dc:title />
      </cc:Work>
    </rdf:RDF>
  </metadata>
  <g
     inkscape:label="Calque 1"
     inkscape:groupmode="layer"
     id="layer1"
     transform="translate(0,-1010.3622)">
    <path
       style="color:#000000;font-style:normal;font-variant:normal;font-weight:normal;font-stretch:normal;font-size:medium;line-height:normal;font-family:sans-serif;text-indent:0;text-align:start;text-decoration:none;text-decoration-line:none;text-decoration-style:solid;text-decoration-color:#000000;letter-spacing:normal;word-spacing:normal;text-transform:none;direction:ltr;block-progression:tb;writing-mode:lr-tb;baseline-shift:baseline;text-anchor:start;white-space:normal;clip-rule:nonzero;display:inline;overflow:visible;visibility:visible;opacity:1;isolation:auto;mix-blend-mode:normal;color-interpolation:sRGB;color-interpolation-filters:linearRGB;solid-color:#000000;solid-opacity:1;fill:#000000;fill-opacity:1;fill-rule:evenodd;stroke:#cccccc;stroke-width:5;stroke-linecap:butt;stroke-linejoin:round;stroke-miterlimit:4;stroke-dasharray:none;stroke-dashoffset:0;stroke-opacity:1;color-rendering:auto;image-rendering:auto;shape-rendering:auto;text-rendering:auto;enable-background:accumulate"
       d="m 28.605875,1017.7235 a 15.000307,15.000307 0 0 0 -0.776828,-0.7251 15.000307,15.000307 0 0 0 -1.180899,-0.9219 15.000307,15.000307 0 0 0 -1.266402,-0.8054 15.000307,15.000307 0 0 0 -1.338777,-0.6707 15.000307,15.000307 0 0 0 -1.403466,-0.5335 15.000307,15.000307 0 0 0 -1.444905,-0.3935 15.000307,15.000307 0 0 0 -1.47866,-0.2461 15.000307,15.000307 0 0 0 -1.499461,-0.096 15.000307,15.000307 0 0 0 -1.496659,0.052 15.000307,15.000307 0 0 0 -1.486525,0.2019 15.000307,15.000307 0 0 0 -1.457841,0.3497 15.000307,15.000307 0 0 0 -1.4166,0.4946 15.000307,15.000307 0 0 0 -1.359396,0.6345 15.000307,15.000307 0 0 0 -1.287034,0.7638 15.000307,15.000307 0 0 0 -1.209399,0.8882 15.000307,15.000307 0 0 0 -1.1107647,1.0075 15.000307,15.000307 0 0 0 -0.7245162,0.7774 15.000307,15.000307 0 0 0 -0.9213945,1.1813 15.000307,15.000307 0 0 0 -0.8053319,1.2664 15.000307,15.000307 0 0 0 -0.670706,1.3388 15.000307,15.000307 0 0 0 -0.5334433,1.4035 15.000307,15.000307 0 0 0 -0.3935675,1.445 15.000307,15.000307 0 0 0 -0.2460063,1.4787 15.000307,15.000307 0 0 0 -0.095631,1.4993 15.000307,15.000307 0 0 0 0.052498,1.4968 15.000307,15.000307 0 0 0 0.2019508,1.4864 15.000307,15.000307 0 0 0 0.3495002,1.4578 15.000307,15.000307 0 0 0 0.4946375,1.4165 15.000307,15.000307 0 0 0 0.6345132,1.3596 15.000307,15.000307 0 0 0 0.7637003,1.287 15.000307,15.000307 0 0 0 0.8882051,1.2093 15.000307,15.000307 0 0 0 1.00746,1.111 l 9.2808796,9.281 c 0.732391,0.7322 1.919478,0.7321 2.651869,0 l 9.280875,-9.281 a 15.000307,15.000307 0 0 0 0.724515,-0.7775 15.000307,15.000307 0 0 0 0.921394,-1.1812 15.000307,15.000307 0 0 0 0.805329,-1.2664 15.000307,15.000307 0 0 0 0.670701,-1.3388 15.000307,15.000307 0 0 0 0.533448,-1.4035 15.000307,15.000307 0 0 0 0.39357,-1.445 15.000307,15.000307 0 0 0 0.246005,-1.4787 15.000307,15.000307 0 0 0 0.09563,-1.4993 15.000307,15.000307 0 0 0 -0.0525,-1.4967 15.000307,15.000307 0 0 0 -0.20213,-1.4865 15.000307,15.000307 0 0 0 -0.349507,-1.4578 15.000307,15.000307 0 0 0 -0.494635,-1.4165 15.000307,15.000307 0 0 0 -0.634512,-1.3596 15.000307,15.000307 0 0 0 -0.763891,-1.287 15.000307,15.000307 0 0 0 -0.888018,-1.2093 15.000307,15.000307 0 0 0 -1.007271,-1.1109 z"
       id="path4143"
       inkscape:connector-curvature="0" />
    <path
       inkscape:connector-curvature="0"
       id="path4141"
       d="m 28.605875,1017.7235 a 15.000307,15.000307 0 0 0 -0.776828,-0.7251 15.000307,15.000307 0 0 0 -1.180899,-0.9219 15.000307,15.000307 0 0 0 -1.266402,-0.8054 15.000307,15.000307 0 0 0 -1.338777,-0.6707 15.000307,15.000307 0 0 0 -1.403466,-0.5335 15.000307,15.000307 0 0 0 -1.444905,-0.3935 15.000307,15.000307 0 0 0 -1.47866,-0.2461 15.000307,15.000307 0 0 0 -1.499461,-0.096 15.000307,15.000307 0 0 0 -1.496659,0.052 15.000307,15.000307 0 0 0 -1.486525,0.2019 15.000307,15.000307 0 0 0 -1.457841,0.3497 15.000307,15.000307 0 0 0 -1.4166,0.4946 15.000307,15.000307 0 0 0 -1.359396,0.6345 15.000307,15.000307 0 0 0 -1.287034,0.7638 15.000307,15.000307 0 0 0 -1.209399,0.8882 15.000307,15.000307 0 0 0 -1.1107647,1.0075 15.000307,15.000307 0 0 0 -0.7245162,0.7774 15.000307,15.000307 0 0 0 -0.9213945,1.1813 15.000307,15.000307 0 0 0 -0.8053319,1.2664 15.000307,15.000307 0 0 0 -0.670706,1.3388 15.000307,15.000307 0 0 0 -0.5334433,1.4035 15.000307,15.000307 0 0 0 -0.3935675,1.445 15.000307,15.000307 0 0 0 -0.2460063,1.4787 15.000307,15.000307 0 0 0 -0.095631,1.4993 15.000307,15.000307 0 0 0 0.052498,1.4968 15.000307,15.000307 0 0 0 0.2019508,1.4864 15.000307,15.000307 0 0 0 0.3495002,1.4578 15.000307,15.000307 0 0 0 0.4946375,1.4165 15.000307,15.000307 0 0 0 0.6345132,1.3596 15.000307,15.000307 0 0 0 0.7637003,1.287 15.000307,15.000307 0 0 0 0.8882051,1.2093 15.000307,15.000307 0 0 0 1.00746,1.111 l 9.2808796,9.281 c 0.732391,0.7322 1.919478,0.7321 2.651869,0 l 9.280875,-9.281 a 15.000307,15.000307 0 0 0 0.724515,-0.7775 15.000307,15.000307 0 0 0 0.921394,-1.1812 15.000307,15.000307 0 0 0 0.805329,-1.2664 15.000307,15.000307 0 0 0 0.670701,-1.3388 15.000307,15.000307 0 0 0 0.533448,-1.4035 15.000307,15.000307 0 0 0 0.39357,-1.445 15.000307,15.000307 0 0 0 0.246005,-1.4787 15.000307,15.000307 0 0 0 0.09563,-1.4993 15.000307,15.000307 0 0 0 -0.0525,-1.4967 15.000307,15.000307 0 0 0 -0.20213,-1.4865 15.000307,15.000307 0 0 0 -0.349507,-1.4578 15.000307,15.000307 0 0 0 -0.494635,-1.4165 15.000307,15.000307 0 0 0 -0.634512,-1.3596 15.000307,15.000307 0 0 0 -0.763891,-1.287 15.000307,15.000307 0 0 0 -0.888018,-1.2093 15.000307,15.000307 0 0 0 -1.007271,-1.1109 z"
       style="color:#000000;font-style:normal;font-variant:normal;font-weight:normal;font-stretch:normal;font-size:medium;line-height:normal;font-family:sans-serif;text-indent:0;text-align:start;text-decoration:none;text-decoration-line:none;text-decoration-style:solid;text-decoration-color:#000000;letter-spacing:normal;word-spacing:normal;text-transform:none;direction:ltr;block-progression:tb;writing-mode:lr-tb;baseline-shift:baseline;text-anchor:start;white-space:normal;clip-rule:nonzero;display:inline;overflow:visible;visibility:visible;opacity:1;isolation:auto;mix-blend-mode:normal;color-interpolation:sRGB;color-interpolation-filters:linearRGB;solid-color:#000000;solid-opacity:1;fill:#000000;fill-opacity:1;fill-rule:evenodd;stroke:#ffffff;stroke-width:3;stroke-linecap:butt;stroke-linejoin:round;stroke-miterlimit:4;stroke-dasharray:none;stroke-dashoffset:0;stroke-opacity:1;color-rendering:auto;image-rendering:auto;shape-rendering:auto;text-rendering:auto;enable-background:accumulate" />
    <path
       style="color:#000000;font-style:normal;font-variant:normal;font-weight:normal;font-stretch:normal;font-size:medium;line-height:normal;font-family:sans-serif;text-indent:0;text-align:start;text-decoration:none;text-decoration-line:none;text-decoration-style:solid;text-decoration-color:#000000;letter-spacing:normal;word-spacing:normal;text-transform:none;direction:ltr;block-progression:tb;writing-mode:lr-tb;baseline-shift:baseline;text-anchor:start;white-space:normal;clip-rule:nonzero;display:inline;overflow:visible;visibility:visible;opacity:1;isolation:auto;mix-blend-mode:normal;color-interpolation:sRGB;color-interpolation-filters:linearRGB;solid-color:#000000;solid-opacity:1;fill:#000000;fill-opacity:1;fill-rule:evenodd;stroke:none;stroke-width:2;stroke-linecap:butt;stroke-linejoin:round;stroke-miterlimit:4;stroke-dasharray:none;stroke-dashoffset:0;stroke-opacity:1;color-rendering:auto;image-rendering:auto;shape-rendering:auto;text-rendering:auto;enable-background:accumulate"
       d="m 28.605875,1017.7235 a 15.000307,15.000307 0 0 0 -0.776828,-0.7251 15.000307,15.000307 0 0 0 -1.180899,-0.9219 15.000307,15.000307 0 0 0 -1.266402,-0.8054 15.000307,15.000307 0 0 0 -1.338777,-0.6707 15.000307,15.000307 0 0 0 -1.403466,-0.5335 15.000307,15.000307 0 0 0 -1.444905,-0.3935 15.000307,15.000307 0 0 0 -1.47866,-0.2461 15.000307,15.000307 0 0 0 -1.499461,-0.096 15.000307,15.000307 0 0 0 -1.496659,0.052 15.000307,15.000307 0 0 0 -1.486525,0.2019 15.000307,15.000307 0 0 0 -1.457841,0.3497 15.000307,15.000307 0 0 0 -1.4166,0.4946 15.000307,15.000307 0 0 0 -1.359396,0.6345 15.000307,15.000307 0 0 0 -1.287034,0.7638 15.000307,15.000307 0 0 0 -1.209399,0.8882 15.000307,15.000307 0 0 0 -1.1107647,1.0075 15.000307,15.000307 0 0 0 -0.7245162,0.7774 15.000307,15.000307 0 0 0 -0.9213945,1.1813 15.000307,15.000307 0 0 0 -0.8053319,1.2664 15.000307,15.000307 0 0 0 -0.670706,1.3388 15.000307,15.000307 0 0 0 -0.5334433,1.4035 15.000307,15.000307 0 0 0 -0.3935675,1.445 15.000307,15.000307 0 0 0 -0.2460063,1.4787 15.000307,15.000307 0 0 0 -0.095631,1.4993 15.000307,15.000307 0 0 0 0.052498,1.4968 15.000307,15.000307 0 0 0 0.2019508,1.4864 15.000307,15.000307 0 0 0 0.3495002,1.4578 15.000307,15.000307 0 0 0 0.4946375,1.4165 15.000307,15.000307 0 0 0 0.6345132,1.3596 15.000307,15.000307 0 0 0 0.7637003,1.287 15.000307,15.000307 0 0 0 0.8882051,1.2093 15.000307,15.000307 0 0 0 1.00746,1.111 l 9.2808796,9.281 c 0.732391,0.7322 1.919478,0.7321 2.651869,0 l 9.280875,-9.281 a 15.000307,15.000307 0 0 0 0.724515,-0.7775 15.000307,15.000307 0 0 0 0.921394,-1.1812 15.000307,15.000307 0 0 0 0.805329,-1.2664 15.000307,15.000307 0 0 0 0.670701,-1.3388 15.000307,15.000307 0 0 0 0.533448,-1.4035 15.000307,15.000307 0 0 0 0.39357,-1.445 15.000307,15.000307 0 0 0 0.246005,-1.4787 15.000307,15.000307 0 0 0 0.09563,-1.4993 15.000307,15.000307 0 0 0 -0.0525,-1.4967 15.000307,15.000307 0 0 0 -0.20213,-1.4865 15.000307,15.000307 0 0 0 -0.349507,-1.4578 15.000307,15.000307 0 0 0 -0.494635,-1.4165 15.000307,15.000307 0 0 0 -0.634512,-1.3596 15.000307,15.000307 0 0 0 -0.763891,-1.287 15.000307,15.000307 0 0 0 -0.888018,-1.2093 15.000307,15.000307 0 0 0 -1.007271,-1.1109 z"
       id="colorized"
       inkscape:connector-curvature="0"
       inkscape:label="#path4148" />
  </g>
</svg>
