<!-- Created with Inkscape (http://www.inkscape.org/) -->
<svg xmlns:rdf="http://www.w3.org/1999/02/22-rdf-syntax-ns#" xmlns="http://www.w3.org/2000/svg" height="42" width="36" version="1.1" xmlns:cc="http://creativecommons.org/ns#" xmlns:dc="http://purl.org/dc/elements/1.1/" viewBox="0 0 36 42.000001">
<metadata>
<rdf:RDF>
<cc:Work rdf:about="">
<dc:format>image/svg+xml</dc:format>
<dc:type rdf:resource="http://purl.org/dc/dcmitype/StillImage"/>
<dc:title/>
</cc:Work>
</rdf:RDF>
</metadata>
<g fill-rule="evenodd" transform="translate(0 -1010.4)">
<path d="m18 0a18 18 0 0 0 -18 18 18 18 0 0 0 5.9883 13.381l-0.0137 0.012 12.025 10.607 12.025-10.607-0.015-0.014a18 18 0 0 0 5.99 -13.379 18 18 0 0 0 -18 -18z" transform="translate(0 1010.4)" fill="#fff"/>
<path id="colorized" d="m18 1012.7a16 16 0 0 0 -16 16 16 16 0 0 0 5.3229 11.894l-0.012153 0.01 10.689 9.4 10.689-9.4-0.01389-0.012a16 16 0 0 0 5.325 -11.9 16 16 0 0 0 -16 -16z" fill="#c00"/>
</g>
</svg>
