<svg id="svg2" xmlns:rdf="http://www.w3.org/1999/02/22-rdf-syntax-ns#" xmlns="http://www.w3.org/2000/svg" height="42" width="36" version="1.1" xmlns:cc="http://creativecommons.org/ns#" xmlns:dc="http://purl.org/dc/elements/1.1/" viewBox="0 0 36 42.000001">
<g id="layer1" fill-rule="evenodd" transform="translate(0 -1010.4)">
<path id="path4198" stroke-linejoin="round" style="color-rendering:auto;text-decoration-color:#000000;color:#000000;isolation:auto;mix-blend-mode:normal;shape-rendering:auto;solid-color:#000000;block-progression:tb;text-decoration-line:none;text-decoration-style:solid;image-rendering:auto;white-space:normal;text-indent:0;text-transform:none" d="m18 2.9668a15 15 0 0 0 -15 15 15 15 0 0 0 10.924 14.422l3.2812 5.4688c0.43944 0.7322 1.1524 0.7321 1.5918 0l3.2734-5.457a15 15 0 0 0 10.93 -14.434 15 15 0 0 0 -14.785 -14.988 9.0002 15 0 0 0 -0.084 -0.0102 9.0002 15 0 0 0 -0.043 0.0019 15 15 0 0 0 -0.088 -0.0039z" transform="translate(0 1010.4)" stroke="#ccc" stroke-width="5"/>
<path id="path4180" stroke-linejoin="round" style="color-rendering:auto;text-decoration-color:#000000;color:#000000;isolation:auto;mix-blend-mode:normal;shape-rendering:auto;solid-color:#000000;block-progression:tb;text-decoration-line:none;text-decoration-style:solid;image-rendering:auto;white-space:normal;text-indent:0;text-transform:none" d="m18 2.9668a15 15 0 0 0 -15 15 15 15 0 0 0 10.924 14.422l3.2812 5.4688c0.43944 0.7322 1.1524 0.7321 1.5918 0l3.2734-5.457a15 15 0 0 0 10.93 -14.434 15 15 0 0 0 -14.785 -14.988 9.0002 15 0 0 0 -0.084 -0.0102 9.0002 15 0 0 0 -0.043 0.0019 15 15 0 0 0 -0.088 -0.0039z" transform="translate(0 1010.4)" stroke="#fff" stroke-width="3"/>
<g id="colorized">
<path id="path4148" style="color-rendering:auto;text-decoration-color:#000000;color:#000000;isolation:auto;mix-blend-mode:normal;shape-rendering:auto;solid-color:#000000;block-progression:tb;text-decoration-line:none;text-decoration-style:solid;image-rendering:auto;white-space:normal;text-indent:0;text-transform:none" d="m24.364 1018.2a9.0002 14.789 0 0 0 -0.4661 -0.7149 9.0002 14.789 0 0 0 -0.70854 -0.9089 9.0002 14.789 0 0 0 -0.75984 -0.794 9.0002 14.789 0 0 0 -0.80327 -0.6612 9.0002 14.789 0 0 0 -0.84208 -0.526 9.0002 14.789 0 0 0 -0.86694 -0.388 9.0002 14.789 0 0 0 -0.8872 -0.2426 9.0002 14.789 0 0 0 -0.89968 -0.095 9.0002 14.789 0 0 0 -0.898 0.051 9.0002 14.789 0 0 0 -0.89192 0.1991 9.0002 14.789 0 0 0 -0.8747 0.3448 9.0002 14.789 0 0 0 -0.84996 0.4876 9.0002 14.789 0 0 0 -0.81564 0.6255 9.0002 14.789 0 0 0 -0.77222 0.7531 9.0002 14.789 0 0 0 -0.72564 0.8756 9.0002 14.789 0 0 0 -0.66646 0.9933 9.0002 14.789 0 0 0 -0.43471 0.7664 9.0002 14.789 0 0 0 -0.55284 1.1647 9.0002 14.789 0 0 0 -0.4832 1.2485 9.0002 14.789 0 0 0 -0.40242 1.3199 9.0002 14.789 0 0 0 -0.32007 1.3837 9.0002 14.789 0 0 0 -0.23614 1.4246 9.0002 14.789 0 0 0 -0.1476 1.4579 9.0002 14.789 0 0 0 -0.057379 1.4781 9.0002 14.789 0 0 0 0.031499 1.4757 9.0002 14.789 0 0 0 0.12117 1.4654 9.0002 14.789 0 0 0 0.2097 1.4373 9.0002 14.789 0 0 0 0.29678 1.3965 9.0002 14.789 0 0 0 0.38071 1.3404 9.0002 14.789 0 0 0 0.45822 1.2688 9.0002 14.789 0 0 0 0.53292 1.1923 9.0002 14.789 0 0 0 0.60448 1.0953l5.5685 9.15c0.43944 0.7219 1.1517 0.7218 1.5911 0l5.5685-9.15a9.0002 14.789 0 0 0 0.43471 -0.7665 9.0002 14.789 0 0 0 0.55284 -1.1646 9.0002 14.789 0 0 0 0.4832 -1.2485 9.0002 14.789 0 0 0 0.40242 -1.3199 9.0002 14.789 0 0 0 0.32007 -1.3837 9.0002 14.789 0 0 0 0.23614 -1.4246 9.0002 14.789 0 0 0 0.1476 -1.4579 9.0002 14.789 0 0 0 0.05738 -1.4781 9.0002 14.789 0 0 0 -0.0315 -1.4756 9.0002 14.789 0 0 0 -0.12128 -1.4655 9.0002 14.789 0 0 0 -0.2097 -1.4373 9.0002 14.789 0 0 0 -0.29678 -1.3965 9.0002 14.789 0 0 0 -0.38071 -1.3404 9.0002 14.789 0 0 0 -0.45834 -1.2688 9.0002 14.789 0 0 0 -0.53281 -1.1923 9.0002 14.789 0 0 0 -0.60436 -1.0952z"/>
<circle id="path4152" style="color-rendering:auto;color:#000000;isolation:auto;mix-blend-mode:normal;shape-rendering:auto;solid-color:#000000;image-rendering:auto" cy="1028.3" cx="18" r="15"/>
</g>
</g>
</svg>
