<?xml version="1.0" encoding="UTF-8" standalone="no"?>
<!-- Generator: Adobe Illustrator 16.2.1, SVG Export Plug-In . SVG Version: 6.00 Build 0)  -->

<svg
   xmlns:dc="http://purl.org/dc/elements/1.1/"
   xmlns:cc="http://creativecommons.org/ns#"
   xmlns:rdf="http://www.w3.org/1999/02/22-rdf-syntax-ns#"
   xmlns:svg="http://www.w3.org/2000/svg"
   xmlns="http://www.w3.org/2000/svg"
   xmlns:sodipodi="http://sodipodi.sourceforge.net/DTD/sodipodi-0.dtd"
   xmlns:inkscape="http://www.inkscape.org/namespaces/inkscape"
   version="1.1"
   id="Layer_1"
   x="0px"
   y="0px"
   width="128"
   height="128"
   viewBox="0 0 128 128"
   enable-background="new 0 0 512 512"
   xml:space="preserve"
   inkscape:version="0.91 r13725"
   sodipodi:docname="empty_state.svg"><metadata
     id="metadata21"><rdf:RDF><cc:Work
         rdf:about=""><dc:format>image/svg+xml</dc:format><dc:type
           rdf:resource="http://purl.org/dc/dcmitype/StillImage" /><dc:title /></cc:Work></rdf:RDF></metadata><defs
     id="defs19" /><sodipodi:namedview
     pagecolor="#ffffff"
     bordercolor="#666666"
     borderopacity="1"
     objecttolerance="10"
     gridtolerance="10"
     guidetolerance="10"
     inkscape:pageopacity="0"
     inkscape:pageshadow="2"
     inkscape:window-width="1680"
     inkscape:window-height="986"
     id="namedview17"
     showgrid="false"
     inkscape:zoom="3.6875001"
     inkscape:cx="44.790941"
     inkscape:cy="106.77021"
     inkscape:window-x="0"
     inkscape:window-y="27"
     inkscape:window-maximized="1"
     inkscape:current-layer="g3" /><g
     id="g3"
     transform="translate(0,-384)"><rect
       style="color:#000000;clip-rule:nonzero;display:inline;overflow:visible;visibility:visible;opacity:1;isolation:auto;mix-blend-mode:normal;color-interpolation:sRGB;color-interpolation-filters:linearRGB;solid-color:#000000;solid-opacity:1;fill:#eeeeec;fill-opacity:1;fill-rule:evenodd;stroke:none;stroke-width:1.95555544;stroke-linecap:butt;stroke-linejoin:miter;stroke-miterlimit:4;stroke-dasharray:none;stroke-dashoffset:0;stroke-opacity:1;color-rendering:auto;image-rendering:auto;shape-rendering:auto;text-rendering:auto;enable-background:accumulate"
       id="rect4144"
       width="128"
       height="128"
       x="0"
       y="384.00003" /><path
       d="M 118.288,418.14501 92.1485,400.57677 c -1.161,-0.76899 -2.591248,-0.76899 -3.75775,0 L 64.117251,416.87551 39.84,400.57677 c -1.160749,-0.76899 -2.611,-0.76899 -3.765498,0 L 9.8360001,418.14501 c -1.0997499,0.73725 -1.836,2.06802 -1.836,3.5125 l 0,70.24251 c 0,1.476 0.7675,2.83675 1.9157499,3.56776 1.155,0.71925 2.5955,0.70723 3.726,-0.0557 l 24.297,-16.29926 24.295251,16.29926 c 1.166498,0.77501 2.61,0.77501 3.771,0 l 24.289501,-16.29926 24.287748,16.29926 c 0.57775,0.38749 1.228,0.58824 1.8845,0.58824 0.61375,0 1.17725,-0.18667 1.74225,-0.53248 1.1485,-0.73102 1.79125,-2.09152 1.79125,-3.56776 l 0,-70.24251 C 120,420.21303 119.39375,418.88226 118.288,418.14501 Z M 33.75,472.31202 16,484.66301 l 0,-60.4375 17.75,-12.35698 z m 8.000001,-0.12053 0,-60.4435 18.25,12.248 0,60.43776 z m 26.25,12.242 0,-60.4375 18.25,-12.248 2.51e-4,60.44376 z M 112,484.41215 94.250001,472.30266 l 0,-60.44373 L 112,423.97503 Z"
       id="path5"
       style="fill:#d3d7cf"
       inkscape:connector-curvature="0"
       sodipodi:nodetypes="cccccccsscccccccscscccccccccccccccccccccc" /><path
       d="m 33.82582,439.9078 c 0.554499,-0.29877 -0.338251,-0.26776 0.253013,-0.45925 l -1.232,-3.80552 c -0.820501,0.2656 -1.625501,0.60976 -2.392749,1.02325 -0.956,0.51552 -1.936251,1.22901 -2.834751,2.06325 l 2.721999,2.93102 c 0.654,-0.60702 2.823,-1.396 3.484501,-1.75275 z"
       id="path7"
       style="fill:#888a85"
       inkscape:connector-curvature="0" /><path
       d="m 74.200502,450.53178 1.746248,3.59875 c 1.649,-0.80027 3.210502,-1.86126 4.773752,-3.24352 l -2.649752,-2.99675 c -1.287,1.138 -2.553,2.002 -3.870248,2.64152 z"
       id="path9"
       style="fill:#888a85"
       inkscape:connector-curvature="0" /><path
       d="m 26.129136,448.40829 c 0.47325,-1.48149 0.882,-2.76098 1.78225,-4.076 l -3.301,-2.25925 c -1.231,1.79851 -1.77025,3.486 -2.29175,5.11776 l -0.0605,0.1896 3.8095,1.21976 0.0615,-0.19173 z"
       id="path11"
       style="fill:#888a85"
       inkscape:connector-curvature="0" /><path
       d="m 49.57775,443.43826 c -0.25176,-0.30099 -0.503499,-0.602 -0.758,-0.90075 l -3.044499,2.59475 c 0.246507,0.28901 0.490248,0.58051 0.734,0.872 0.898248,1.074 1.827,2.18475 2.902499,3.20227 l 2.749,-2.906 c -0.905749,-0.85675 -1.720499,-1.83102 -2.583,-2.86227 z"
       id="path13"
       style="fill:#888a85"
       inkscape:connector-curvature="0" /><polygon
       points="429.814,208 440.156,197.657 428.844,186.342 418.5,196.685 408.156,186.342 396.844,197.657 407.186,208 396.844,218.342 408.156,229.657 418.5,219.314 428.844,229.657 440.156,218.342 "
       id="polygon15"
       style="fill:#888a85"
       transform="matrix(0.25,0,0,0.25,0,384.00002)" /><path
       style="fill:#888a85"
       id="path4151"
       d="m 41.52645,441.84836 c 0.555864,0.29622 0.0356,-0.42992 0.522504,-0.0437 l 2.486075,-3.13355 c -0.675512,-0.53608 -1.408003,-1.01565 -2.177245,-1.42544 -0.95871,-0.51045 -2.09571,-0.93141 -3.287963,-1.21741 l -0.932694,3.88973 c 0.867627,0.20827 2.725907,1.5772 3.389323,1.93038 z"
       inkscape:connector-curvature="0" /><path
       style="fill:#888a85"
       id="path4153"
       d="m 60.209099,451.21754 c -1.463416,-0.52651 -2.727301,-0.98125 -4.00889,-1.92848 l -2.377126,3.21717 c 1.752814,1.29523 3.419712,1.89512 5.031539,2.47528 l 0.1872,0.0672 1.356691,-3.7629 -0.189414,-0.0683 z"
       inkscape:connector-curvature="0" /><path
       inkscape:connector-curvature="0"
       d="m 69.720865,452.04578 c -1.540643,0.21253 -2.871235,0.39629 -4.446022,0.152 l -0.612909,3.95288 c 2.153688,0.334 3.908646,0.092 5.605648,-0.14213 l 0.19704,-0.0272 -0.54425,-3.9628 -0.19952,0.0272 z"
       id="path4155"
       style="fill:#888a85" /><path
       style="fill:#888a85"
       id="path4157"
       d="m 84.89491,446.69226 c 0.897768,-1.26995 1.673152,-2.36675 2.927883,-3.34928 l -2.466557,-3.14909 c -1.715822,1.34384 -2.738614,2.79032 -3.727672,4.18901 l -0.1148,0.1624 3.264712,2.31123 0.116426,-0.16427 z"
       inkscape:connector-curvature="0" /><path
       inkscape:connector-curvature="0"
       d="m 91.562828,439.69442 c 1.446018,-0.57256 2.694899,-1.06704 4.282659,-1.20376 l -0.343688,-3.98531 c -2.171387,0.1872 -3.818601,0.83923 -5.411433,1.46966 l -0.184933,0.0733 1.470085,3.72008 0.187307,-0.0739 z"
       id="path4159"
       style="fill:#888a85" /></g></svg>