<!-- Created with Inkscape (http://www.inkscape.org/) -->
<svg xmlns:rdf="http://www.w3.org/1999/02/22-rdf-syntax-ns#" xmlns="http://www.w3.org/2000/svg" height="30" width="30" version="1.1" xmlns:cc="http://creativecommons.org/ns#" xmlns:dc="http://purl.org/dc/elements/1.1/" viewBox="0 0 30 30">
<metadata>
<rdf:RDF>
<cc:Work rdf:about="">
<dc:format>image/svg+xml</dc:format>
<dc:type rdf:resource="http://purl.org/dc/dcmitype/StillImage"/>
<dc:title/>
</cc:Work>
</rdf:RDF>
</metadata>
<g fill-rule="evenodd" fill="#22b0df" transform="translate(5.9997 3.4691)">
<path style="color-rendering:auto;text-decoration-color:#000000;color:#000000;isolation:auto;mix-blend-mode:normal;shape-rendering:auto;solid-color:#000000;block-progression:tb;text-decoration-line:none;image-rendering:auto;white-space:normal;text-indent:0;text-transform:none;text-decoration-style:solid" d="m3.7572 17.574c0.20163 0.17429 0.41184 0.3384 0.62985 0.49172 0.21784 0.15438 0.44327 0.29775 0.67545 0.42958 0.23192 0.13106 0.47024 0.25046 0.71408 0.35774 0.24462 0.10728 0.49446 0.20225 0.74858 0.28454 0.25323 0.08275 0.51044 0.1528 0.77066 0.20989 0.26055 0.05687 0.52377 0.10067 0.78869 0.13125 0.26557 0.03042 0.5325 0.04751 0.79978 0.0512 0.26639 0.0041 0.53282-0.0052 0.79829-0.02773 0.26591-0.02265 0.53053-0.05859 0.79285-0.10768 0.26213-0.04917 0.52163-0.11142 0.77754-0.18651 0.2561-0.07528 0.50827-0.16332 0.75557-0.26381 0.24718-0.10064 0.48916-0.21359 0.72505-0.33842 0.23545-0.12429 0.46455-0.26026 0.68644-0.40739 0.22279-0.14706 0.43807-0.30517 0.64505-0.47374 0.20633-0.16913 0.40406-0.34848 0.59247-0.53737 0.13367-0.1336 0.26256-0.2719 0.38644-0.41464 0.1742-0.20171 0.33822-0.412 0.49144-0.63008 0.15436-0.21784 0.29772-0.44328 0.42953-0.67546 0.13106-0.23192 0.25045-0.47024 0.35774-0.71406 0.10728-0.24462 0.20223-0.49446 0.28452-0.74858 0.08276-0.25325 0.15282-0.51047 0.20992-0.77071 0.05686-0.26055 0.10065-0.52378 0.13122-0.7887 0.03034-0.26554 0.04736-0.53243 0.05099-0.79967 0.004-0.26642-0.0054-0.53286-0.028-0.79834-0.02266-0.2659-0.05861-0.5305-0.10771-0.79281-0.048-0.2618-0.11-0.5213-0.185-0.7772-0.075-0.2562-0.163-0.5083-0.264-0.7556-0.1-0.2472-0.213-0.4892-0.338-0.7252-0.124-0.2355-0.26-0.4646-0.408-0.6864-0.147-0.2228-0.305-0.4381-0.473-0.645-0.169-0.2064-0.349-0.4042-0.538-0.5926l-4.9495-4.9502c-0.39063-0.39054-1.0238-0.39048-1.4144 0l-4.9501 4.9502c-0.1336 0.1336-0.2625 0.2719-0.3864 0.4146-0.1742 0.2017-0.3383 0.412-0.4916 0.6301-0.1543 0.2179-0.2976 0.4433-0.4294 0.6755-0.1311 0.2319-0.2505 0.4702-0.3578 0.7141-0.1073 0.2446-0.2022 0.4944-0.2845 0.7485-0.0828 0.2532-0.1528 0.5104-0.2099 0.7706-0.0569 0.2606-0.1007 0.5236-0.1312 0.7886-0.030348 0.26554-0.04737 0.53244-0.051003 0.79969-0.003964 0.2664 0.00538 0.53283 0.028001 0.7983 0.022689 0.26592 0.058669 0.53054 0.10781 0.79286 0.049139 0.26213 0.11135 0.52163 0.18641 0.77754 0.075284 0.25608 0.16334 0.50823 0.26383 0.75551 0.10064 0.24722 0.21359 0.48924 0.33842 0.72517 0.1243 0.23545 0.26029 0.46456 0.40743 0.68645 0.14702 0.22277 0.3051 0.43804 0.47365 0.64501 0.1691 0.20634 0.34841 0.4041 0.50906 0.56525s0.29885 0.29015 0.44148 0.41413z" stroke-opacity=".99216" stroke="#888a85" stroke-width="4" fill="#fff"/>
<path style="color-rendering:auto;text-decoration-color:#000000;color:#000000;isolation:auto;mix-blend-mode:normal;shape-rendering:auto;solid-color:#000000;block-progression:tb;text-decoration-line:none;image-rendering:auto;white-space:normal;text-indent:0;text-transform:none;text-decoration-style:solid" d="m3.7572 17.574c0.20163 0.17429 0.41184 0.3384 0.62985 0.49172 0.21784 0.15438 0.44327 0.29775 0.67545 0.42958 0.23192 0.13106 0.47024 0.25046 0.71408 0.35774 0.24462 0.10728 0.49446 0.20225 0.74858 0.28454 0.25323 0.08275 0.51044 0.1528 0.77066 0.20989 0.26055 0.05687 0.52377 0.10067 0.78869 0.13125 0.26557 0.03042 0.5325 0.04751 0.79978 0.0512 0.26639 0.0041 0.53282-0.0052 0.79829-0.02773 0.26591-0.02265 0.53053-0.05859 0.79285-0.10768 0.26213-0.04917 0.52163-0.11142 0.77754-0.18651 0.2561-0.07528 0.50827-0.16332 0.75557-0.26381 0.24718-0.10064 0.48916-0.21359 0.72505-0.33842 0.23545-0.12429 0.46455-0.26026 0.68644-0.40739 0.22279-0.14706 0.43807-0.30517 0.64505-0.47374 0.20633-0.16913 0.40406-0.34848 0.59247-0.53737 0.13367-0.1336 0.26256-0.2719 0.38644-0.41464 0.1742-0.20171 0.33822-0.412 0.49144-0.63008 0.15436-0.21784 0.29772-0.44328 0.42953-0.67546 0.13106-0.23192 0.25045-0.47024 0.35774-0.71406 0.10728-0.24462 0.20223-0.49446 0.28452-0.74858 0.08276-0.25325 0.15282-0.51047 0.20992-0.77071 0.05686-0.26055 0.10065-0.52378 0.13122-0.7887 0.03034-0.26554 0.04736-0.53243 0.05099-0.79967 0.004-0.26642-0.0054-0.53286-0.028-0.79834-0.02266-0.2659-0.05861-0.5305-0.10771-0.79281-0.048-0.2618-0.11-0.5213-0.185-0.7772-0.075-0.2562-0.163-0.5083-0.264-0.7556-0.1-0.2472-0.213-0.4892-0.338-0.7252-0.124-0.2355-0.26-0.4646-0.408-0.6864-0.147-0.2228-0.305-0.4381-0.473-0.645-0.169-0.2064-0.349-0.4042-0.538-0.5926l-4.9495-4.9502c-0.39063-0.39054-1.0238-0.39048-1.4144 0l-4.9501 4.9502c-0.1336 0.1336-0.2625 0.2719-0.3864 0.4146-0.1742 0.2017-0.3383 0.412-0.4916 0.6301-0.1543 0.2179-0.2976 0.4433-0.4294 0.6755-0.1311 0.2319-0.2505 0.4702-0.3578 0.7141-0.1073 0.2446-0.2022 0.4944-0.2845 0.7485-0.0828 0.2532-0.1528 0.5104-0.2099 0.7706-0.0569 0.2606-0.1007 0.5236-0.1312 0.7886-0.030348 0.26554-0.04737 0.53244-0.051003 0.79969-0.003964 0.2664 0.00538 0.53283 0.028001 0.7983 0.022689 0.26592 0.058669 0.53054 0.10781 0.79286 0.049139 0.26213 0.11135 0.52163 0.18641 0.77754 0.075284 0.25608 0.16334 0.50823 0.26383 0.75551 0.10064 0.24722 0.21359 0.48924 0.33842 0.72517 0.1243 0.23545 0.26029 0.46456 0.40743 0.68645 0.14702 0.22277 0.3051 0.43804 0.47365 0.64501 0.1691 0.20634 0.34841 0.4041 0.50906 0.56525s0.29885 0.29015 0.44148 0.41413z" stroke="#fff" stroke-width="3" fill="#fff"/>
<path id="colorized" style="color-rendering:auto;text-decoration-color:#000000;color:#000000;isolation:auto;mix-blend-mode:normal;shape-rendering:auto;solid-color:#000000;block-progression:tb;text-decoration-line:none;image-rendering:auto;white-space:normal;text-indent:0;text-transform:none;text-decoration-style:solid" d="m3.7572 17.574c0.20163 0.17429 0.41184 0.3384 0.62985 0.49172 0.21784 0.15438 0.44327 0.29775 0.67545 0.42958 0.23192 0.13106 0.47024 0.25046 0.71408 0.35774 0.24462 0.10728 0.49446 0.20225 0.74858 0.28454 0.25323 0.08275 0.51044 0.1528 0.77066 0.20989 0.26055 0.05687 0.52377 0.10067 0.78869 0.13125 0.26557 0.03042 0.5325 0.04751 0.79978 0.0512 0.26639 0.0041 0.53282-0.0052 0.79829-0.02773 0.26591-0.02265 0.53053-0.05859 0.79285-0.10768 0.26213-0.04917 0.52163-0.11142 0.77754-0.18651 0.2561-0.07528 0.50827-0.16332 0.75557-0.26381 0.24718-0.10064 0.48916-0.21359 0.72505-0.33842 0.23545-0.12429 0.46455-0.26026 0.68644-0.40739 0.22279-0.14706 0.43807-0.30517 0.64505-0.47374 0.20633-0.16913 0.40406-0.34848 0.59247-0.53737 0.13367-0.1336 0.26256-0.2719 0.38644-0.41464 0.1742-0.20171 0.33822-0.412 0.49144-0.63008 0.15436-0.21784 0.29772-0.44328 0.42953-0.67546 0.13106-0.23192 0.25045-0.47024 0.35774-0.71406 0.10728-0.24462 0.20223-0.49446 0.28452-0.74858 0.08276-0.25325 0.15282-0.51047 0.20992-0.77071 0.05686-0.26055 0.10065-0.52378 0.13122-0.7887 0.03034-0.26554 0.04736-0.53243 0.05099-0.79967 0.004-0.26642-0.0054-0.53286-0.028-0.79834-0.02266-0.2659-0.05861-0.5305-0.10771-0.79281-0.048-0.2618-0.11-0.5213-0.185-0.7772-0.075-0.2562-0.163-0.5083-0.264-0.7556-0.1-0.2472-0.213-0.4892-0.338-0.7252-0.124-0.2355-0.26-0.4646-0.408-0.6864-0.147-0.2228-0.305-0.4381-0.473-0.645-0.169-0.2064-0.349-0.4042-0.538-0.5926l-4.9495-4.9502c-0.39063-0.39054-1.0238-0.39048-1.4144 0l-4.9501 4.9502c-0.1336 0.1336-0.2625 0.2719-0.3864 0.4146-0.1742 0.2017-0.3383 0.412-0.4916 0.6301-0.1543 0.2179-0.2976 0.4433-0.4294 0.6755-0.1311 0.2319-0.2505 0.4702-0.3578 0.7141-0.1073 0.2446-0.2022 0.4944-0.2845 0.7485-0.0828 0.2532-0.1528 0.5104-0.2099 0.7706-0.0569 0.2606-0.1007 0.5236-0.1312 0.7886-0.030348 0.26554-0.04737 0.53244-0.051003 0.79969-0.003964 0.2664 0.00538 0.53283 0.028001 0.7983 0.022689 0.26592 0.058669 0.53054 0.10781 0.79286 0.049139 0.26213 0.11135 0.52163 0.18641 0.77754 0.075284 0.25608 0.16334 0.50823 0.26383 0.75551 0.10064 0.24722 0.21359 0.48924 0.33842 0.72517 0.1243 0.23545 0.26029 0.46456 0.40743 0.68645 0.14702 0.22277 0.3051 0.43804 0.47365 0.64501 0.1691 0.20634 0.34841 0.4041 0.50906 0.56525s0.29885 0.29015 0.44148 0.41413z"/>
</g>
</svg>
