<svg id="svg2" xmlns:rdf="http://www.w3.org/1999/02/22-rdf-syntax-ns#" xmlns="http://www.w3.org/2000/svg" height="42" viewBox="0 0 36 42.000001" width="36" version="1.1" xmlns:cc="http://creativecommons.org/ns#" xmlns:dc="http://purl.org/dc/elements/1.1/">
<g fill-rule="evenodd">
<path id="path4218" stroke-linejoin="round" style="color-rendering:auto;text-decoration-color:#000000;color:#000000;isolation:auto;mix-blend-mode:normal;shape-rendering:auto;solid-color:#000000;block-progression:tb;text-decoration-line:none;image-rendering:auto;white-space:normal;text-indent:0;text-transform:none;text-decoration-style:solid" d="m5.6435 3.1229-0.2839 3.8152c10.612 0.7898 17.051 1.5544 20.241 2.3137 0.39242 0.093377 0.225 0.063042 0.51168 0.1662-1.2511 0.7389-3.1735 1.7198-6.1438 3.0533-3.6156 1.6232-7.8465 3.5867-11.495 6.0896-0.58773 0.40313-1.2743 0.97476-1.4062 2.0729-0.13181 1.0981 0.56897 1.976 1.0962 2.3846 1.0544 0.81736 2.1695 1.0943 3.5854 1.4883 2.8318 0.78814 6.6636 1.537 9.7141 2.5284 1.5253 0.49572 2.8458 1.063 3.6433 1.5966 0.79752 0.53367 0.90759 0.84448 0.91317 0.97476 0.0056 0.13031-0.1227 0.75665-1.3408 1.8525s-3.38 2.5155-6.6554 4.1587l1.7143 3.4173c3.451-1.7312 5.854-3.2517 7.4996-4.732 1.6455-1.4803 2.6798-3.0671 2.6032-4.859-0.07664-1.7919-1.2935-3.1118-2.6069-3.9906-1.312-0.88-2.89-1.505-4.587-2.057-3.395-1.103-7.314-1.863-9.871-2.575-0.211-0.058-0.182-0.074-0.374-0.136 2.9191-1.782 6.1508-3.3846 9.1354-4.7245 3.575-1.6049 6.5343-2.7137 8.3921-4.2951 0.46446-0.39532 0.93068-0.84682 1.1932-1.6452 0.26259-0.79836 0.007-1.9349-0.5098-2.5509-1.032-1.2341-2.262-1.4973-4.124-1.9404-3.724-0.8863-10.169-1.6145-20.844-2.409z" stroke="#d3d7cf" stroke-width="4" fill="#d3d7cf"/>
<path id="path4216" stroke-linejoin="round" style="color-rendering:auto;text-decoration-color:#000000;color:#000000;isolation:auto;mix-blend-mode:normal;shape-rendering:auto;solid-color:#000000;block-progression:tb;text-decoration-line:none;image-rendering:auto;white-space:normal;text-indent:0;text-transform:none;text-decoration-style:solid" d="m5.6435 3.1229-0.2839 3.8152c10.612 0.7898 17.051 1.5544 20.241 2.3137 0.39242 0.093377 0.225 0.063042 0.51168 0.1662-1.2511 0.7389-3.1735 1.7198-6.1438 3.0533-3.6156 1.6232-7.8465 3.5867-11.495 6.0896-0.58773 0.40313-1.2743 0.97476-1.4062 2.0729-0.13181 1.0981 0.56897 1.976 1.0962 2.3846 1.0544 0.81736 2.1695 1.0943 3.5854 1.4883 2.8318 0.78814 6.6636 1.537 9.7141 2.5284 1.5253 0.49572 2.8458 1.063 3.6433 1.5966 0.79752 0.53367 0.90759 0.84448 0.91317 0.97476 0.0056 0.13031-0.1227 0.75665-1.3408 1.8525s-3.38 2.5155-6.6554 4.1587l1.7143 3.4173c3.451-1.7312 5.854-3.2517 7.4996-4.732 1.6455-1.4803 2.6798-3.0671 2.6032-4.859-0.07664-1.7919-1.2935-3.1118-2.6069-3.9906-1.312-0.88-2.89-1.505-4.587-2.057-3.395-1.103-7.314-1.863-9.871-2.575-0.211-0.058-0.182-0.074-0.374-0.136 2.9191-1.782 6.1508-3.3846 9.1354-4.7245 3.575-1.6049 6.5343-2.7137 8.3921-4.2951 0.46446-0.39532 0.93068-0.84682 1.1932-1.6452 0.26259-0.79836 0.007-1.9349-0.5098-2.5509-1.032-1.2341-2.262-1.4973-4.124-1.9404-3.724-0.8863-10.169-1.6145-20.844-2.409z" stroke="#fff" stroke-width="2.5" fill="#ef2929"/>
<path id="colorized" style="color-rendering:auto;text-decoration-color:#000000;color:#000000;isolation:auto;mix-blend-mode:normal;shape-rendering:auto;solid-color:#000000;block-progression:tb;text-decoration-line:none;image-rendering:auto;white-space:normal;text-indent:0;text-transform:none;text-decoration-style:solid" d="m5.6435 3.1229-0.2839 3.8152c10.612 0.7898 17.051 1.5544 20.241 2.3137 0.39242 0.093378 0.225 0.063045 0.51168 0.1662-1.2511 0.7389-3.1735 1.7198-6.1438 3.0533-3.6156 1.6232-7.8465 3.5867-11.495 6.0896-0.58773 0.40313-1.2743 0.97476-1.4062 2.0729-0.13181 1.0981 0.56897 1.976 1.0962 2.3846 1.0544 0.81736 2.1695 1.0943 3.5854 1.4883 2.8318 0.78814 6.6636 1.537 9.7141 2.5284 1.5253 0.49572 2.8458 1.063 3.6433 1.5966 0.79752 0.53367 0.90759 0.84448 0.91317 0.97476 0.0056 0.13031-0.1227 0.75665-1.3408 1.8525s-3.38 2.5155-6.6554 4.1587l1.7143 3.4173c3.451-1.7312 5.854-3.2517 7.4996-4.732 1.6455-1.4803 2.6798-3.0671 2.6032-4.859-0.07664-1.7919-1.2935-3.1118-2.6069-3.9906-1.312-0.88-2.89-1.505-4.587-2.057-3.395-1.103-7.314-1.863-9.871-2.575-0.211-0.058-0.182-0.074-0.374-0.136 2.9191-1.782 6.1508-3.3846 9.1354-4.7245 3.575-1.6049 6.5343-2.7137 8.3921-4.2951 0.46446-0.39532 0.93068-0.84682 1.1932-1.6452 0.26259-0.79836 0.007-1.9349-0.5098-2.5509-1.032-1.2341-2.262-1.4973-4.124-1.9404-3.724-0.8863-10.169-1.6145-20.844-2.409z" fill="#babdb6"/>
</g>
</svg>
