<?xml version="1.0" encoding="UTF-8" standalone="no"?>
<!-- Created with Inkscape (http://www.inkscape.org/) -->
<svg id="svg2" xmlns:rdf="http://www.w3.org/1999/02/22-rdf-syntax-ns#" xmlns="http://www.w3.org/2000/svg" height="20" viewBox="0 0 20 20" width="20" version="1.1" xmlns:cc="http://creativecommons.org/ns#" xmlns:dc="http://purl.org/dc/elements/1.1/">
 <metadata id="metadata7">
  <rdf:RDF>
   <cc:Work rdf:about="">
    <dc:format>image/svg+xml</dc:format>
    <dc:type rdf:resource="http://purl.org/dc/dcmitype/StillImage"/>
    <dc:title/>
   </cc:Work>
  </rdf:RDF>
 </metadata>
 <g id="g4163" fill="#22b0df" transform="translate(1 -1.5311)" fill-rule="evenodd">
  <path id="path4161" style="color-rendering:auto;text-decoration-color:#000000;color:#000000;isolation:auto;mix-blend-mode:normal;shape-rendering:auto;solid-color:#000000;block-progression:tb;text-decoration-line:none;image-rendering:auto;white-space:normal;text-indent:0;text-transform:none;text-decoration-style:solid" stroke-width="3" stroke="#555753" d="m4.7576 15.774a6 6 0 0 0 0.31073 0.29004 6 6 0 0 0 0.47236 0.36876 6 6 0 0 0 0.50656 0.32216 6 6 0 0 0 0.53552 0.26828 6 6 0 0 0 0.5614 0.2134 6 6 0 0 0 0.57796 0.1574 6 6 0 0 0 0.59148 0.09844 6 6 0 0 0 0.5998 0.0384 6 6 0 0 0 0.59868 -0.0208 6 6 0 0 0 0.5946 -0.08076 6 6 0 0 0 0.58312 -0.13988 6 6 0 0 0 0.56664 -0.19784 6 6 0 0 0 0.54376 -0.2538 6 6 0 0 0 0.5148 -0.30552 6 6 0 0 0 0.48376 -0.35528 6 6 0 0 0 0.44432 -0.403 6 6 0 0 0 0.28981 -0.31096 6 6 0 0 0 0.36856 -0.47252 6 6 0 0 0 0.32213 -0.50656 6 6 0 0 0 0.26828 -0.53552 6 6 0 0 0 0.21338 -0.5614 6 6 0 0 0 0.15743 -0.578 6 6 0 0 0 0.0984 -0.59148 6 6 0 0 0 0.03825 -0.59972 6 6 0 0 0 -0.021 -0.59872 6 6 0 0 0 -0.08077 -0.59456 6 6 0 0 0 -0.139 -0.5823 6 6 0 0 0 -0.198 -0.5666 6 6 0 0 0 -0.254 -0.5439 6 6 0 0 0 -0.305 -0.5148 6 6 0 0 0 -0.356 -0.4837 6 6 0 0 0 -0.403 -0.4444l-3.712-3.7124c-0.29295-0.29288-0.7678-0.29284-1.0608 0l-3.7123 3.7124a6 6 0 0 0 -0.2898 0.311 6 6 0 0 0 -0.3686 0.4725 6 6 0 0 0 -0.3221 0.5066 6 6 0 0 0 -0.2683 0.5355 6 6 0 0 0 -0.2134 0.5614 6 6 0 0 0 -0.1574 0.5777 6 6 0 0 0 -0.0984 0.59148 6 6 0 0 0 -0.038252 0.59972 6 6 0 0 0 0.021 0.59868 6 6 0 0 0 0.080852 0.5946 6 6 0 0 0 0.1398 0.58312 6 6 0 0 0 0.19786 0.5666 6 6 0 0 0 0.2538 0.54384 6 6 0 0 0 0.30555 0.5148 6 6 0 0 0 0.35521 0.48372 6 6 0 0 0 0.40292 0.44436z"/>
  <path id="path4159" style="color-rendering:auto;text-decoration-color:#000000;color:#000000;isolation:auto;mix-blend-mode:normal;shape-rendering:auto;solid-color:#000000;block-progression:tb;text-decoration-line:none;image-rendering:auto;white-space:normal;text-indent:0;text-transform:none;text-decoration-style:solid" stroke-width="2" stroke="#fff" d="m4.7576 15.774a6 6 0 0 0 0.31073 0.29004 6 6 0 0 0 0.47236 0.36876 6 6 0 0 0 0.50656 0.32216 6 6 0 0 0 0.53552 0.26828 6 6 0 0 0 0.5614 0.2134 6 6 0 0 0 0.57796 0.1574 6 6 0 0 0 0.59148 0.09844 6 6 0 0 0 0.5998 0.0384 6 6 0 0 0 0.59868 -0.0208 6 6 0 0 0 0.5946 -0.08076 6 6 0 0 0 0.58312 -0.13988 6 6 0 0 0 0.56664 -0.19784 6 6 0 0 0 0.54376 -0.2538 6 6 0 0 0 0.5148 -0.30552 6 6 0 0 0 0.48376 -0.35528 6 6 0 0 0 0.44432 -0.403 6 6 0 0 0 0.28981 -0.31096 6 6 0 0 0 0.36856 -0.47252 6 6 0 0 0 0.32213 -0.50656 6 6 0 0 0 0.26828 -0.53552 6 6 0 0 0 0.21338 -0.5614 6 6 0 0 0 0.15743 -0.578 6 6 0 0 0 0.0984 -0.59148 6 6 0 0 0 0.03825 -0.59972 6 6 0 0 0 -0.021 -0.59872 6 6 0 0 0 -0.08077 -0.59456 6 6 0 0 0 -0.139 -0.5823 6 6 0 0 0 -0.198 -0.5666 6 6 0 0 0 -0.254 -0.5439 6 6 0 0 0 -0.305 -0.5148 6 6 0 0 0 -0.356 -0.4837 6 6 0 0 0 -0.403 -0.4444l-3.712-3.7124c-0.29295-0.29288-0.7678-0.29284-1.0608 0l-3.7123 3.7124a6 6 0 0 0 -0.2898 0.311 6 6 0 0 0 -0.3686 0.4725 6 6 0 0 0 -0.3221 0.5066 6 6 0 0 0 -0.2683 0.5355 6 6 0 0 0 -0.2134 0.5614 6 6 0 0 0 -0.1574 0.5777 6 6 0 0 0 -0.0984 0.59148 6 6 0 0 0 -0.03825 0.59972 6 6 0 0 0 0.021 0.59868 6 6 0 0 0 0.08085 0.5946 6 6 0 0 0 0.1398 0.58312 6 6 0 0 0 0.19786 0.5666 6 6 0 0 0 0.2538 0.54384 6 6 0 0 0 0.30556 0.5148 6 6 0 0 0 0.35521 0.48372 6 6 0 0 0 0.40292 0.44436z"/>
  <path id="colorized" style="color-rendering:auto;text-decoration-color:#000000;color:#000000;isolation:auto;mix-blend-mode:normal;shape-rendering:auto;solid-color:#000000;block-progression:tb;text-decoration-line:none;image-rendering:auto;white-space:normal;text-indent:0;text-transform:none;text-decoration-style:solid" d="m5.4647 14.886a5 5 0 0 0 0.25894 0.2417 5 5 0 0 0 0.39363 0.3073 5 5 0 0 0 0.42213 0.26847 5 5 0 0 0 0.44627 0.22357 5 5 0 0 0 0.46783 0.17783 5 5 0 0 0 0.48163 0.13117 5 5 0 0 0 0.4929 0.08203 5 5 0 0 0 0.49983 0.032 5 5 0 0 0 0.4989 -0.01733 5 5 0 0 0 0.4955 -0.0673 5 5 0 0 0 0.48593 -0.11656 5 5 0 0 0 0.4722 -0.16487 5 5 0 0 0 0.45313 -0.2115 5 5 0 0 0 0.429 -0.2546 5 5 0 0 0 0.40313 -0.29607 5 5 0 0 0 0.37027 -0.33583 5 5 0 0 0 0.24151 -0.25913 5 5 0 0 0 0.30713 -0.39377 5 5 0 0 0 0.26844 -0.42213 5 5 0 0 0 0.22357 -0.44626 5 5 0 0 0 0.17781 -0.46783 5 5 0 0 0 0.13119 -0.48166 5 5 0 0 0 0.082 -0.4929 5 5 0 0 0 0.03187 -0.49976 5 5 0 0 0 -0.0175 -0.49893 5 5 0 0 0 -0.06731 -0.49547 5 5 0 0 0 -0.116 -0.4859 5 5 0 0 0 -0.165 -0.4722 5 5 0 0 0 -0.211 -0.4532 5 5 0 0 0 -0.255 -0.429 5 5 0 0 0 -0.296 -0.4031 5 5 0 0 0 -0.336 -0.3703l-3.0933-3.0937c-0.24413-0.24407-0.63983-0.24403-0.88396 0l-3.0936 3.0937a5 5 0 0 0 -0.2415 0.2591 5 5 0 0 0 -0.3072 0.3938 5 5 0 0 0 -0.2684 0.4221 5 5 0 0 0 -0.2236 0.4463 5 5 0 0 0 -0.1778 0.4678 5 5 0 0 0 -0.1312 0.4816 5 5 0 0 0 -0.082 0.4929 5 5 0 0 0 -0.031875 0.49977 5 5 0 0 0 0.0175 0.4989 5 5 0 0 0 0.067375 0.4955 5 5 0 0 0 0.1165 0.48593 5 5 0 0 0 0.16488 0.47216 5 5 0 0 0 0.2115 0.4532 5 5 0 0 0 0.25463 0.429 5 5 0 0 0 0.29601 0.4031 5 5 0 0 0 0.33577 0.3703z"/>
 </g>
</svg>
