<?xml version="1.0" encoding="UTF-8" standalone="no"?>
<!-- Created with Inkscape (http://www.inkscape.org/) -->

<svg
   xmlns:dc="http://purl.org/dc/elements/1.1/"
   xmlns:cc="http://creativecommons.org/ns#"
   xmlns:rdf="http://www.w3.org/1999/02/22-rdf-syntax-ns#"
   xmlns:svg="http://www.w3.org/2000/svg"
   xmlns="http://www.w3.org/2000/svg"
   xmlns:sodipodi="http://sodipodi.sourceforge.net/DTD/sodipodi-0.dtd"
   xmlns:inkscape="http://www.inkscape.org/namespaces/inkscape"
   width="262"
   height="48"
   viewBox="0 0 262 48.000003"
   id="svg2"
   version="1.1"
   inkscape:version="0.91 r13725"
   sodipodi:docname="logo.svg"
   inkscape:export-filename="/home/moz/Dev/MapContrib/src/public/img/logo.png"
   inkscape:export-xdpi="90"
   inkscape:export-ydpi="90">
  <defs
     id="defs4" />
  <sodipodi:namedview
     id="base"
     pagecolor="#ffffff"
     bordercolor="#666666"
     borderopacity="1.0"
     inkscape:pageopacity="0.0"
     inkscape:pageshadow="2"
     inkscape:zoom="1"
     inkscape:cx="131"
     inkscape:cy="15.866813"
     inkscape:document-units="px"
     inkscape:current-layer="g4163"
     showgrid="true"
     inkscape:window-width="1680"
     inkscape:window-height="986"
     inkscape:window-x="0"
     inkscape:window-y="27"
     inkscape:window-maximized="1"
     showborder="true"
     inkscape:showpageshadow="false"
     units="px"
     inkscape:snap-bbox="true"
     inkscape:bbox-paths="true"
     inkscape:bbox-nodes="true"
     inkscape:snap-bbox-edge-midpoints="true"
     inkscape:snap-bbox-midpoints="true"
     inkscape:object-paths="true"
     inkscape:snap-intersection-paths="true"
     inkscape:object-nodes="true"
     inkscape:snap-smooth-nodes="true"
     inkscape:snap-midpoints="true"
     inkscape:snap-object-midpoints="true"
     inkscape:snap-center="true"
     inkscape:snap-text-baseline="true"
     inkscape:snap-page="true"
     fit-margin-top="0"
     fit-margin-left="0"
     fit-margin-right="0"
     fit-margin-bottom="0">
    <inkscape:grid
       type="xygrid"
       id="grid4145"
       originx="-19"
       originy="-16.000093" />
  </sodipodi:namedview>
  <metadata
     id="metadata7">
    <rdf:RDF>
      <cc:Work
         rdf:about="">
        <dc:format>image/svg+xml</dc:format>
        <dc:type
           rdf:resource="http://purl.org/dc/dcmitype/StillImage" />
        <dc:title></dc:title>
      </cc:Work>
    </rdf:RDF>
  </metadata>
  <g
     inkscape:label="Calque 1"
     inkscape:groupmode="layer"
     id="layer1"
     transform="translate(-19.000002,-988.36211)">
    <g
       id="g4163">
      <g
         transform="translate(0,5.000116)"
         id="g4356">
        <path
           style="fill:#e54041;fill-opacity:1;fill-rule:evenodd;stroke:none;stroke-width:1px;stroke-linecap:butt;stroke-linejoin:miter;stroke-opacity:1"
           d="m 19.932686,993.91734 1.907358,34.20556 12.080005,-7.248 -0.508631,-33.69688 z"
           id="path4186"
           inkscape:connector-curvature="0" />
        <path
           style="fill:#e54041;fill-opacity:1;fill-rule:evenodd;stroke:none;stroke-width:1px;stroke-linecap:butt;stroke-linejoin:miter;stroke-opacity:1"
           d="m 47.653107,992.64581 -0.254314,36.11289 12.588635,-8.1381 0.762945,-33.56973 z"
           id="path4188"
           inkscape:connector-curvature="0" />
        <path
           inkscape:connector-curvature="0"
           id="path4192"
           d="m 34.810158,987.68666 0.127163,33.82394 11.571362,6.7395 -0.127152,-35.34996 z"
           style="fill:#a11616;fill-opacity:1;fill-rule:evenodd;stroke:none;stroke-width:1px;stroke-linecap:butt;stroke-linejoin:miter;stroke-opacity:1" />
        <path
           inkscape:connector-curvature="0"
           id="path4194"
           d="m 61.259004,987.68666 0,33.56964 11.952853,7.1209 -0.254316,-34.45986 z"
           style="fill:#a11616;fill-opacity:1;fill-rule:evenodd;stroke:none;stroke-width:1px;stroke-linecap:butt;stroke-linejoin:miter;stroke-opacity:1" />
        <path
           sodipodi:nodetypes="cccccccsscccccccscscccccccccccccccccccccc"
           id="path4196"
           d="m 74.143871,992.43466 -13.069722,-8.7841 c -0.580496,-0.38451 -1.295622,-0.38451 -1.878871,0 l -12.136724,8.14935 -12.1386,-8.14935 c -0.580374,-0.38451 -1.305497,-0.38451 -1.882747,0 l -13.119223,8.7841 c -0.549874,0.36862 -0.917997,1.03395 -0.917997,1.75623 l 0,35.12121 c 0,0.738 0.383748,1.4184 0.957873,1.7838 0.577498,0.3597 1.297746,0.3536 1.862995,-0.028 l 12.148475,-8.1497 12.147601,8.1497 c 0.58325,0.3875 1.304999,0.3875 1.885495,0 l 12.144727,-8.1497 12.143847,8.1497 c 0.288876,0.1938 0.613999,0.2941 0.942249,0.2941 0.306876,0 0.588623,-0.094 0.871122,-0.2664 0.574251,-0.3653 0.895622,-1.0456 0.895622,-1.7837 l 0,-35.12125 c -1.23e-4,-0.72216 -0.303246,-1.3876 -0.856122,-1.75622 z m -42.268912,27.08344 -8.87498,6.1755 0,-30.21873 8.87498,-6.17845 z m 3.999992,-0.061 0,-30.22164 9.124984,6.1239 0,30.21894 z m 13.124971,6.1211 0,-30.21884 9.124983,-6.1239 1.25e-4,30.22184 z m 21.999955,-0.012 -8.874978,-6.0547 0,-30.2218 8.874978,6.05757 z"
           inkscape:connector-curvature="0"
           style="fill:#cc1c1d;fill-opacity:1" />
        <path
           id="path4198"
           d="m 34.695296,1015.8658 5.520839,-5.5911 c -0.898439,-1.5685 -1.367186,-3.3129 -1.367186,-5.0703 0,-5.70167 4.635431,-10.34231 10.325515,-10.34231 5.690112,0 10.325527,4.64064 10.325527,10.34231 0,5.7016 -4.635415,10.3424 -10.325527,10.3424 -1.816398,0 -3.613278,-0.5012 -5.214836,-1.4579 l -5.494791,5.5715 c -0.123699,0.1236 -0.299475,0.2017 -0.47526,0.2017 -0.175776,0 -0.351561,-0.072 -0.475262,-0.2017 l -2.819019,-2.8509 c -0.26041,-0.2668 -0.26041,-0.6834 0,-0.9437 z m 14.479168,-16.97487 c -3.476557,0 -6.30208,2.83137 -6.30208,6.31347 0,3.4822 2.825523,6.3135 6.30208,6.3135 3.476572,0 6.302094,-2.8313 6.302094,-6.3135 0,-3.4821 -2.825522,-6.31347 -6.302094,-6.31347 z"
           inkscape:connector-curvature="0"
           style="fill:#ffffff;fill-opacity:1" />
      </g>
      <g
         transform="translate(0,-0.59259344)"
         id="text4364"
         style="font-style:normal;font-variant:normal;font-weight:normal;font-stretch:normal;font-size:37.50000381px;line-height:125%;font-family:'Hammersmith One';-inkscape-font-specification:'Hammersmith One, Normal';text-align:start;letter-spacing:0px;word-spacing:0px;writing-mode:lr-tb;text-anchor:start;fill:#2e3436;fill-opacity:1;stroke:none;stroke-width:1px;stroke-linecap:butt;stroke-linejoin:miter;stroke-opacity:1">
        <path
           inkscape:connector-curvature="0"
           id="path4369"
           d="m 89.999993,1003.0298 q 0.585937,0.037 1.00708,0.055 0.439453,0.018 0.787353,0.018 1.043702,0 1.757813,-0.037 0.732422,-0.037 1.025391,-0.1115 l 6.15234,10.6213 5.91431,-10.6213 q 0.14649,0.037 0.47608,0.074 0.3479,0.018 0.76904,0.037 0.42114,0.018 0.87891,0.037 0.45776,0 0.84228,0 0.64087,0 1.06201,-0.018 0.43946,-0.018 1.02539,-0.056 l 0,24.8141 -1.46484,0 q -0.54932,0 -1.06201,0 -0.5127,0.018 -0.93384,0.037 -0.42114,0.018 -0.73242,0.037 -0.31128,0.018 -0.47608,0.037 l 0,-16.9829 -6.17065,11.198 -6.188967,-10.3052 0,16.0901 q -0.164795,-0.018 -0.476075,-0.037 -0.311279,-0.018 -0.732422,-0.037 -0.421142,-0.018 -0.933838,-0.037 -0.512695,0 -1.062011,0 l -1.464844,0 0,-24.8141 z" />
        <path
           inkscape:connector-curvature="0"
           id="path4371"
           d="m 116.34887,1021.5278 q 0,-1.2035 0.56763,-2.3331 0.58594,-1.1479 1.77612,-2.0181 1.19019,-0.8888 3.02124,-1.4258 1.84937,-0.5369 4.35791,-0.5369 0.1648,0 0.32959,0.018 0.18311,0 0.36622,0 l 0.95214,0.074 q -0.0732,-0.9258 -0.32959,-1.5367 -0.25634,-0.6111 -0.75073,-0.9814 -0.47607,-0.3703 -1.19018,-0.5185 -0.6958,-0.1481 -1.68457,-0.1481 -0.73243,0 -1.57471,0.1481 -0.82398,0.1482 -1.61133,0.4074 -0.78735,0.2592 -1.44653,0.5925 -0.65918,0.3333 -1.0437,0.7036 l -0.0549,-0.037 -0.54931,-4.2586 q 1.3916,-0.7776 3.20434,-1.2406 1.83106,-0.4814 3.77198,-0.4814 1.97754,0 3.44238,0.5184 1.48315,0.5 2.4353,1.4814 0.97046,0.9627 1.44654,2.3514 0.47607,1.3887 0.47607,3.1292 l 0,6.7028 q 0,1.1665 0.36621,1.8516 0.36621,0.6851 1.13526,1.0739 l -3.31421,3.0736 q -0.8606,-0.4443 -1.42823,-1.2406 -1.09863,0.537 -2.32544,0.7963 -1.20849,0.2591 -2.47192,0.2591 -1.84937,0 -3.31421,-0.4443 -1.44653,-0.4444 -2.47192,-1.259 -1.00708,-0.8333 -1.5564,-2.0183 -0.53101,-1.2036 -0.53101,-2.7033 z m 4.48609,-0.1296 q 0,1.1665 1.06201,1.9071 1.06201,0.7406 3.11279,0.7406 1.48316,0 2.81983,-0.5924 -0.0549,-0.5555 -0.0549,-1.1481 l 0,-3.3883 q -0.32959,-0.074 -0.84229,-0.074 -0.49438,-0.018 -0.91553,-0.018 -1.40991,0 -2.39868,0.2408 -0.98877,0.2222 -1.61133,0.611 -0.62256,0.3703 -0.89721,0.8332 -0.27466,0.4444 -0.27466,0.8888 z" />
        <path
           sodipodi:nodetypes="csccccccscccscccccsccccccscccsccsccscccc"
           inkscape:connector-curvature="0"
           id="path4373"
           d="m 141.87378,1032.8868 c 0,0.6278 0.006,1.0894 0.0183,1.3848 0.0122,0.2955 0.0305,0.5232 0.0549,0.6832 l -4.55932,0 0,-27 4.48608,0 0,1.5511 c 0.72021,-0.517 1.41601,-0.9047 2.0874,-1.1632 0.68359,-0.2586 1.44653,-0.3879 2.28882,-0.3879 1.14746,0 2.24609,0.197 3.2959,0.591 1.06201,0.3939 1.99585,0.997 2.80151,1.8095 0.81787,0.8002 1.46485,1.8158 1.94092,3.0469 0.48828,1.2187 0.73242,2.6589 0.73242,4.3208 0,1.108 -0.14038,2.1359 -0.42114,3.0838 -0.28076,0.9356 -0.65918,1.785 -1.13525,2.5482 -0.47607,0.7509 -1.02539,1.4157 -1.64795,1.9943 -0.62256,0.5663 -1.28174,1.0464 -1.97754,1.4403 -0.6958,0.3816 -1.40381,0.6709 -2.12402,0.8679 -0.70801,0.197 -1.38551,0.2955 -2.03248,0.2955 -0.89111,0 -1.63574,-0.062 -2.23388,-0.1847 -0.58594,-0.1231 -1.11084,-0.2893 -1.57471,-0.4986 l 0,5.6171 z m 0,-10.6766 c 0.51269,0.4678 1.06201,0.8125 1.64795,1.0341 0.59815,0.2093 1.19019,0.3139 1.77612,0.3139 0.74463,0 1.43433,-0.1354 2.06909,-0.4063 0.64697,-0.2831 1.20239,-0.6832 1.66626,-1.2003 0.46387,-0.5293 0.83009,-1.1694 1.09864,-1.9204 0.26855,-0.7632 0.40283,-1.631 0.40283,-2.6035 0,-0.7264 -0.0855,-1.3604 -0.25635,-1.902 -0.1709,-0.5417 -0.39673,-1.0033 -0.67749,-1.3849 -0.26855,-0.394 -0.57373,-0.7141 -0.91553,-0.9603 -0.34179,-0.2462 -0.68969,-0.4431 -1.0437,-0.5908 -0.354,-0.1477 -0.6958,-0.2462 -1.02539,-0.2955 -0.32959,-0.061 -0.61035,-0.092 -0.84228,-0.092 -0.6958,0 -1.39771,0.1477 -2.10572,0.4431 -0.70801,0.2832 -1.30615,0.6833 -1.79443,1.2003 l 0,8.3649 z" />
        <path
           sodipodi:nodetypes="ccccscccccccscccscccscccccccsccccc"
           inkscape:connector-curvature="0"
           id="path4375"
           d="m 158.33496,1015.7441 c 0,-1.9323 0.354,-3.6834 1.06201,-5.2533 0.72022,-1.5821 1.69678,-2.9286 2.92969,-4.0397 1.23291,-1.1112 2.67945,-1.9687 4.3396,-2.5725 1.66016,-0.6159 3.44239,-0.9238 5.34668,-0.9238 1.30615,0 2.4353,0.1026 3.38745,0.3079 0.95215,0.2053 1.83058,0.4952 2.59962,0.8696 l 0,5.5794 -0.0366,0.037 c -0.23194,-0.3503 -0.57325,-0.6763 -0.98829,-0.9782 -0.41504,-0.3019 -0.89111,-0.5616 -1.42822,-0.779 -0.52491,-0.2174 -1.09864,-0.3865 -1.72119,-0.5073 -0.62256,-0.1207 -1.26343,-0.1811 -1.92261,-0.1811 -1.33057,0 -2.54517,0.2053 -3.6438,0.6159 -1.08643,0.3985 -2.02027,0.9601 -2.80152,1.6848 -0.78125,0.7246 -1.38549,1.5821 -1.81274,2.5724 -0.42725,0.9903 -0.64087,2.0711 -0.64087,3.2425 0,1.5339 0.25635,2.8261 0.76904,3.8768 0.5127,1.0386 1.16578,1.8779 1.95923,2.518 0.80567,0.6401 1.69068,1.099 2.65503,1.3768 0.96436,0.2777 1.8982,0.4166 2.80152,0.4166 0.67139,0 1.34888,-0.072 2.03247,-0.2174 0.6958,-0.157 1.35498,-0.3804 1.97754,-0.6702 0.63477,-0.2899 1.2207,-0.6401 1.75781,-1.0507 0.53711,-0.4107 0.62208,-0.8756 0.9883,-1.3949 l 0.0549,0.037 0,5.1629 c -0.92774,0.7609 -1.67189,1.3647 -2.96584,1.8114 -1.29395,0.4469 -2.74658,0.6703 -4.35791,0.6703 -1.90429,0 -3.61938,-0.3019 -5.14526,-0.9057 -1.52588,-0.6039 -2.82593,-1.4432 -3.90015,-2.5181 -1.06201,-1.0748 -1.87988,-2.361 -2.45361,-3.8585 -0.56153,-1.4975 -0.84229,-3.14 -0.84229,-4.9274 z" />
        <path
           inkscape:connector-curvature="0"
           id="path4377"
           d="m 180.84601,1018.1956 q 0,-2.1296 0.71411,-3.9815 0.71412,-1.8704 2.03248,-3.2592 1.31836,-1.3889 3.18603,-2.1853 1.86768,-0.8148 4.17481,-0.8148 2.2705,0 4.04663,0.7593 1.79443,0.7407 3.02124,2.0741 1.2268,1.3148 1.86767,3.1296 0.64087,1.7963 0.64087,3.8889 0,2.074 -0.65918,3.9259 -0.65918,1.8333 -1.9226,3.2222 -1.26343,1.3889 -3.09449,2.2038 -1.81274,0.7962 -4.13818,0.7962 -2.4353,0 -4.28467,-0.7962 -1.84936,-0.7964 -3.09448,-2.1482 -1.22681,-1.3518 -1.86768,-3.1111 -0.62256,-1.7593 -0.62256,-3.7037 z m 4.55933,-0.3148 q 0,1.2777 0.38452,2.3518 0.40283,1.0555 1.13526,1.8149 0.73242,0.7407 1.7395,1.1666 1.02539,0.4074 2.28882,0.4074 1.19018,0 2.10571,-0.4074 0.93384,-0.4074 1.57471,-1.1481 0.64087,-0.7408 0.97046,-1.7593 0.32959,-1.037 0.32959,-2.2963 0,-1.2407 -0.3479,-2.2963 -0.34791,-1.0741 -1.0254,-1.8519 -0.67749,-0.7777 -1.66626,-1.2037 -0.97045,-0.4444 -2.23388,-0.4444 -1.31836,0 -2.30713,0.5 -0.98877,0.4815 -1.64795,1.2778 -0.65918,0.7962 -0.98877,1.8148 -0.31128,1.0185 -0.31128,2.0741 z" />
        <path
           sodipodi:nodetypes="cccsscccscscsccccccccccscccsccsccccc"
           inkscape:connector-curvature="0"
           id="path4379"
           d="m 203.57606,1007.9548 4.48608,0 0,2.0336 c 0.84229,-0.7089 1.68457,-1.2251 2.52686,-1.5485 0.84229,-0.3234 1.72119,-0.4851 2.63672,-0.4851 1.00097,0 1.90429,0.1804 2.70996,0.5411 0.81787,0.3607 1.51367,0.8769 2.0874,1.5485 0.57373,0.6592 1.01319,1.4552 1.31836,2.3881 0.31739,0.9204 0.47608,1.9465 0.47608,3.0783 l 0,4.5709 0,2.8544 c 0,0.7712 0.006,1.4242 0.0183,1.959 0.0122,0.5224 0.0244,0.9391 0.0366,1.25 0.0122,0.311 0.0305,0.5536 0.0549,0.7277 0.0488,0.3233 0.12204,0.5472 0.21973,0.6716 0.10986,0.1244 0.20141,0.2364 0.27465,0.3359 l -0.0366,0.074 c -0.17089,-0.012 -0.37231,-0.031 -0.60424,-0.056 -0.23194,-0.012 -0.48829,-0.025 -0.76905,-0.038 -0.26855,-0.012 -0.55542,-0.024 -0.86059,-0.037 l -0.87891,0 -0.80566,0 c -0.31739,0.012 -0.69581,0.031 -1.13526,0.056 l 0,-10.1678 c 0,-0.9453 -0.0794,-1.76 -0.23804,-2.4441 -0.14648,-0.6965 -0.3662,-1.2687 -0.65917,-1.7165 -0.28077,-0.4477 -0.62257,-0.7774 -1.0254,-0.9889 -0.39062,-0.2113 -0.82397,-0.317 -1.30004,-0.317 -0.76905,0 -1.49537,0.2301 -2.17896,0.6903 -0.68359,0.4601 -1.30615,1.138 -1.86768,2.0336 l 0,10.5978 c 0,0.5597 0.006,1.02 0.0183,1.3807 0.0244,0.3607 0.0671,0.6965 0.12818,1.0074 l -4.63257,0 0,-20.0009 z" />
        <path
           sodipodi:nodetypes="ccsccsscccccccscccscccccccscccscc"
           inkscape:connector-curvature="0"
           id="path4381"
           d="m 226.2079,1012.9548 -2.20801,0 c -0.0122,-0.1735 -0.0183,-0.3532 -0.0183,-0.5391 l 0,-0.5576 0,-2.7881 0,-0.7993 c 0,-0.2106 0.006,-0.3159 0.0183,-0.3159 l 2.20801,0 0,-5 4.48608,0 0,5 4.30591,0 0,5 -4.30591,0 0,7.1562 c 0,0.7187 0.061,1.3073 0.18311,1.7658 0.12207,0.4461 0.29907,0.7993 0.531,1.0595 0.23193,0.2478 0.5188,0.4213 0.8606,0.5204 0.354,0.087 0.75683,0.1302 1.20849,0.1302 0.73243,0 1.35499,-0.1054 1.86768,-0.3161 0.51269,-0.223 0.90942,-0.5328 1.19019,-0.9294 l 0.14648,0 -0.62256,4.6841 c -0.13427,0.1363 -0.33569,0.2602 -0.60425,0.3717 -0.25635,0.1115 -0.55542,0.2107 -0.89721,0.2974 -0.32959,0.087 -0.6836,0.1488 -1.06202,0.1859 -0.37841,0.049 -0.75073,0.074 -1.11694,0.074 -0.93994,0 -1.79443,-0.1301 -2.56348,-0.3903 -0.75683,-0.2726 -1.4038,-0.6877 -1.94091,-1.2454 -0.53711,-0.57 -0.95215,-1.2949 -1.24512,-2.1746 -0.28076,-0.8923 -0.42114,-1.9518 -0.42114,-3.1785 l 0,-8.0112 z" />
        <path
           sodipodi:nodetypes="cccsssccccsccsscccc"
           inkscape:connector-curvature="0"
           id="path4383"
           d="m 239.39149,1007.9548 4.48608,0 0,1.6338 c 0.45166,-0.4381 0.96436,-0.82 1.53809,-1.1455 0.57373,-0.3255 1.17188,-0.4883 1.79443,-0.4883 0.48829,0 0.96436,0.038 1.42823,0.1127 0.46387,0.075 0.85449,0.1815 1.17187,0.3192 l -0.32959,5.0516 -0.0732,0.057 c -0.20752,-0.4131 -0.55542,-0.7073 -1.0437,-0.8826 -0.48828,-0.1879 -1.01318,-0.2818 -1.57471,-0.2818 -0.51269,0 -1.0376,0.1753 -1.57471,0.5258 -0.5249,0.3505 -0.97046,0.8263 -1.33667,1.4273 l 0,11.5678 c 0,0.6384 0.006,1.1079 0.0183,1.4084 0.0122,0.3005 0.0305,0.5321 0.0549,0.6948 l -4.55933,0 0,-19.9996 z" />
        <path
           sodipodi:nodetypes="ccccsccccccsscccc"
           inkscape:connector-curvature="0"
           id="path4385"
           d="m 252.9999,1003.5437 c 0.45166,-0.7324 0.92163,-1.4099 1.40991,-2.0325 0.50049,-0.6225 0.93995,-1.1413 1.31836,-1.5564 l 3.27173,2.5393 c -0.24414,0.3052 -0.46997,0.5921 -0.67749,0.8606 -0.20752,0.2685 -0.41504,0.5371 -0.62256,0.8057 -0.19531,0.2685 -0.39673,0.5493 -0.60425,0.8423 -0.19531,0.2807 -0.40894,0.5981 -0.64087,0.9521 z m 0.42236,4.4111 4.57764,0 -0.0232,17.9492 c -8e-4,0.6225 0.006,1.0803 0.0183,1.3733 0.0122,0.2929 0.0305,0.5188 0.0549,0.6775 l -4.65088,0 0.0232,-20 z" />
        <path
           inkscape:connector-curvature="0"
           id="path4387"
           d="m 263.34168,1000.9548 4.48609,0 0,7.8664 q 0.98877,-0.5419 2.06909,-0.7847 1.09863,-0.2617 2.19727,-0.2617 1.70288,0 3.20434,0.7288 1.51978,0.7101 2.65503,2.018 1.15357,1.2892 1.81275,3.1391 0.65918,1.8311 0.65918,4.0734 0,2.429 -0.71411,4.3349 -0.71412,1.8872 -1.95923,3.1952 -1.24512,1.308 -2.92969,1.9992 -1.66626,0.6914 -3.58887,0.6914 -1.61133,0 -3.05786,-0.4484 -1.42822,-0.4672 -2.50855,-1.4014 -1.06201,-0.9529 -1.70288,-2.3917 -0.62256,-1.4388 -0.62256,-3.382 l 0,-19.3765 z m 4.48609,19.3204 q 0,0.9716 0.25635,1.607 0.27466,0.6353 0.75073,1.009 0.47607,0.3737 1.13525,0.5232 0.67749,0.1495 1.50147,0.1495 0.95215,0 1.77612,-0.4298 0.82398,-0.4298 1.40991,-1.2146 0.60425,-0.8034 0.93384,-1.9058 0.3479,-1.1212 0.3479,-2.4852 0,-1.4201 -0.36621,-2.4477 -0.3479,-1.0277 -0.98877,-1.7004 -0.62256,-0.6727 -1.48315,-0.9903 -0.8606,-0.3176 -1.84937,-0.3176 -0.78735,0 -1.72119,0.411 -0.93384,0.3924 -1.70288,1.0651 l 0,6.7266 z" />
      </g>
    </g>
  </g>
</svg>
