<?xml version="1.0" encoding="UTF-8" standalone="no"?>
<!-- Created with Inkscape (http://www.inkscape.org/) -->
<svg id="svg2" xmlns:rdf="http://www.w3.org/1999/02/22-rdf-syntax-ns#" xmlns="http://www.w3.org/2000/svg" height="42" viewBox="0 0 36 42.000001" width="36" version="1.1" xmlns:cc="http://creativecommons.org/ns#" xmlns:dc="http://purl.org/dc/elements/1.1/">
 <metadata id="metadata7">
  <rdf:RDF>
   <cc:Work rdf:about="">
    <dc:format>image/svg+xml</dc:format>
    <dc:type rdf:resource="http://purl.org/dc/dcmitype/StillImage"/>
    <dc:title/>
   </cc:Work>
  </rdf:RDF>
 </metadata>
 <path id="path4216" style="color-rendering:auto;text-decoration-color:#000000;color:#000000;isolation:auto;mix-blend-mode:normal;shape-rendering:auto;solid-color:#000000;block-progression:tb;text-decoration-line:none;text-decoration-style:solid;image-rendering:auto;white-space:normal;text-indent:0;text-transform:none" d="m5.0645 2.2988-0.2969 3.9903c11.099 0.826 17.834 1.6257 21.171 2.4199 0.41043 0.097663 0.23533 0.065928 0.53516 0.17383-1.3085 0.77282-3.3192 1.7987-6.4258 3.1934-3.7816 1.6977-8.2067 3.7513-12.023 6.3691-0.61471 0.42163-1.3328 1.0195-1.4707 2.168-0.13786 1.1485 0.59509 2.0667 1.1465 2.4941 1.1028 0.85488 2.2691 1.1445 3.75 1.5566 2.9618 0.82432 6.9695 1.6076 10.16 2.6445 1.5953 0.51848 2.9764 1.1118 3.8105 1.6699 0.83413 0.55817 0.94925 0.88324 0.95508 1.0195 0.0058 0.13629-0.12833 0.79138-1.4023 1.9375s-3.5351 2.631-6.9609 4.3496l1.793 3.5742c3.6094-1.8107 6.1227-3.401 7.8438-4.9492 1.721-1.5483 2.8028-3.2079 2.7227-5.082-0.08015-1.8741-1.3529-3.2546-2.7266-4.1738-1.3737-0.91923-3.0237-1.5735-4.7988-2.1504-3.5503-1.1538-7.6495-1.9489-10.324-2.6934-0.22033-0.06132-0.19002-0.07748-0.39063-0.14258 3.0531-1.8638 6.4331-3.54 9.5547-4.9414 3.7391-1.6786 6.8342-2.8383 8.7773-4.4922 0.48578-0.41347 0.9734-0.88569 1.248-1.7207 0.27464-0.83501 0.0073-2.0237-0.5332-2.668-1.08-1.2909-2.366-1.5662-4.314-2.0296-3.895-0.927-10.635-1.6886-21.8-2.5196z" fill-rule="evenodd" stroke="#fff" stroke-width="3" fill="#babdb6"/>
 <path id="colorized" style="color-rendering:auto;text-decoration-color:#000000;color:#000000;isolation:auto;mix-blend-mode:normal;shape-rendering:auto;solid-color:#000000;block-progression:tb;text-decoration-line:none;text-decoration-style:solid;image-rendering:auto;white-space:normal;text-indent:0;text-transform:none" d="m5.0645 2.2988-0.2969 3.9903c11.099 0.826 17.834 1.6257 21.171 2.4199 0.41043 0.097663 0.23533 0.065928 0.53516 0.17383-1.3085 0.77282-3.3192 1.7987-6.4258 3.1934-3.7816 1.6977-8.2067 3.7513-12.023 6.3691-0.61471 0.42163-1.3328 1.0195-1.4707 2.168-0.13786 1.1485 0.59509 2.0667 1.1465 2.4941 1.1028 0.85488 2.2691 1.1445 3.75 1.5566 2.9618 0.82432 6.9695 1.6076 10.16 2.6445 1.5953 0.51848 2.9764 1.1118 3.8105 1.6699 0.83413 0.55817 0.94925 0.88324 0.95508 1.0195 0.0058 0.13629-0.12833 0.79138-1.4023 1.9375s-3.5351 2.631-6.9609 4.3496l1.793 3.5742c3.6094-1.8107 6.1227-3.401 7.8438-4.9492 1.721-1.5483 2.8028-3.2079 2.7227-5.082-0.08015-1.8741-1.3529-3.2546-2.7266-4.1738-1.3737-0.91923-3.0237-1.5735-4.7988-2.1504-3.5503-1.1538-7.6495-1.9489-10.324-2.6934-0.22033-0.06132-0.19002-0.07748-0.39063-0.14258 3.0531-1.8638 6.4331-3.54 9.5547-4.9414 3.7391-1.6786 6.8342-2.8383 8.7773-4.4922 0.48578-0.41347 0.9734-0.88569 1.248-1.7207 0.27464-0.83501 0.0073-2.0237-0.5332-2.668-1.08-1.2909-2.366-1.5662-4.314-2.0296-3.895-0.927-10.635-1.6886-21.8-2.5196z" fill-rule="evenodd" fill="#babdb6"/>
</svg>
