<svg xmlns="http://www.w3.org/2000/svg" id="svg2" height="50" width="50" version="1.1"><g id="layer1" transform="matrix(1.02857 0 0 1.02858 6.486 -1035.483)" fill="#babdb6" fill-rule="evenodd" color="#000" color-rendering="auto" image-rendering="auto" shape-rendering="auto"><path id="path4143" stroke-linejoin="round" style="text-indent:0;text-decoration-line:none;text-decoration-style:solid;text-decoration-color:#000;text-transform:none;white-space:normal;isolation:auto;mix-blend-mode:normal;solid-color:#000" d="M28.606 1017.7a15 15 0 0 0-.777-.725 15 15 0 0 0-1.18-.922 15 15 0 0 0-1.267-.805 15 15 0 0 0-1.339-.671 15 15 0 0 0-1.403-.534 15 15 0 0 0-1.445-.393 15 15 0 0 0-1.479-.246 15 15 0 0 0-1.5-.096 15 15 0 0 0-1.496.052 15 15 0 0 0-1.487.202 15 15 0 0 0-1.458.35 15 15 0 0 0-1.416.494 15 15 0 0 0-1.36.635 15 15 0 0 0-1.287.763 15 15 0 0 0-1.209.889 15 15 0 0 0-1.11 1.007 15 15 0 0 0-.725.777 15 15 0 0 0-.922 1.182 15 15 0 0 0-.805 1.266 15 15 0 0 0-.67 1.339 15 15 0 0 0-.534 1.403 15 15 0 0 0-.394 1.445 15 15 0 0 0-.246 1.48 15 15 0 0 0-.095 1.498 15 15 0 0 0 .052 1.497 15 15 0 0 0 .202 1.487 15 15 0 0 0 .35 1.457 15 15 0 0 0 .494 1.417 15 15 0 0 0 .635 1.36 15 15 0 0 0 .763 1.286 15 15 0 0 0 .889 1.21 15 15 0 0 0 1.007 1.11l9.281 9.282c.732.732 1.92.732 2.652 0l9.28-9.281a15 15 0 0 0 .725-.778 15 15 0 0 0 .922-1.18 15 15 0 0 0 .805-1.267 15 15 0 0 0 .67-1.34 15 15 0 0 0 .534-1.403 15 15 0 0 0 .394-1.445 15 15 0 0 0 .246-1.478 15 15 0 0 0 .095-1.5 15 15 0 0 0-.052-1.496 15 15 0 0 0-.202-1.487 15 15 0 0 0-.35-1.458 15 15 0 0 0-.494-1.416 15 15 0 0 0-.635-1.36 15 15 0 0 0-.764-1.287 15 15 0 0 0-.888-1.209 15 15 0 0 0-1.007-1.11z" stroke="#707377" stroke-width="5" text-decoration="none" fill="#707377" fill-opacity="1" stroke-opacity="1"/><path id="path4141" stroke-linejoin="round" style="text-indent:0;text-decoration-line:none;text-decoration-style:solid;text-decoration-color:#000;text-transform:none;white-space:normal;isolation:auto;mix-blend-mode:normal;solid-color:#000" d="M28.606 1017.7a15 15 0 0 0-.777-.725 15 15 0 0 0-1.18-.922 15 15 0 0 0-1.267-.805 15 15 0 0 0-1.339-.671 15 15 0 0 0-1.403-.534 15 15 0 0 0-1.445-.393 15 15 0 0 0-1.479-.246 15 15 0 0 0-1.5-.096 15 15 0 0 0-1.496.052 15 15 0 0 0-1.487.202 15 15 0 0 0-1.458.35 15 15 0 0 0-1.416.494 15 15 0 0 0-1.36.635 15 15 0 0 0-1.287.763 15 15 0 0 0-1.209.889 15 15 0 0 0-1.11 1.007 15 15 0 0 0-.725.777 15 15 0 0 0-.922 1.182 15 15 0 0 0-.805 1.266 15 15 0 0 0-.67 1.339 15 15 0 0 0-.534 1.403 15 15 0 0 0-.394 1.445 15 15 0 0 0-.246 1.48 15 15 0 0 0-.095 1.498 15 15 0 0 0 .052 1.497 15 15 0 0 0 .202 1.487 15 15 0 0 0 .35 1.457 15 15 0 0 0 .494 1.417 15 15 0 0 0 .635 1.36 15 15 0 0 0 .763 1.286 15 15 0 0 0 .889 1.21 15 15 0 0 0 1.007 1.11l9.281 9.282c.732.732 1.92.732 2.652 0l9.28-9.281a15 15 0 0 0 .725-.778 15 15 0 0 0 .922-1.18 15 15 0 0 0 .805-1.267 15 15 0 0 0 .67-1.34 15 15 0 0 0 .534-1.403 15 15 0 0 0 .394-1.445 15 15 0 0 0 .246-1.478 15 15 0 0 0 .095-1.5 15 15 0 0 0-.052-1.496 15 15 0 0 0-.202-1.487 15 15 0 0 0-.35-1.458 15 15 0 0 0-.494-1.416 15 15 0 0 0-.635-1.36 15 15 0 0 0-.764-1.287 15 15 0 0 0-.888-1.209 15 15 0 0 0-1.007-1.11z" stroke="#fff" stroke-width="3" text-decoration="none"/><path id="colorized" style="text-indent:0;text-decoration-line:none;text-decoration-style:solid;text-decoration-color:#000;text-transform:none;white-space:normal;isolation:auto;mix-blend-mode:normal;solid-color:#000" d="M28.606 1017.7a15 15 0 0 0-.777-.725 15 15 0 0 0-1.18-.922 15 15 0 0 0-1.267-.805 15 15 0 0 0-1.339-.671 15 15 0 0 0-1.403-.534 15 15 0 0 0-1.445-.393 15 15 0 0 0-1.479-.246 15 15 0 0 0-1.5-.096 15 15 0 0 0-1.496.052 15 15 0 0 0-1.487.202 15 15 0 0 0-1.458.35 15 15 0 0 0-1.416.494 15 15 0 0 0-1.36.635 15 15 0 0 0-1.287.763 15 15 0 0 0-1.209.889 15 15 0 0 0-1.11 1.007 15 15 0 0 0-.725.777 15 15 0 0 0-.922 1.182 15 15 0 0 0-.805 1.266 15 15 0 0 0-.67 1.339 15 15 0 0 0-.534 1.403 15 15 0 0 0-.394 1.445 15 15 0 0 0-.246 1.48 15 15 0 0 0-.095 1.498 15 15 0 0 0 .052 1.497 15 15 0 0 0 .202 1.487 15 15 0 0 0 .35 1.457 15 15 0 0 0 .494 1.417 15 15 0 0 0 .635 1.36 15 15 0 0 0 .763 1.286 15 15 0 0 0 .889 1.21 15 15 0 0 0 1.007 1.11l9.281 9.282c.732.732 1.92.732 2.652 0l9.28-9.281a15 15 0 0 0 .725-.778 15 15 0 0 0 .922-1.18 15 15 0 0 0 .805-1.267 15 15 0 0 0 .67-1.34 15 15 0 0 0 .534-1.403 15 15 0 0 0 .394-1.445 15 15 0 0 0 .246-1.478 15 15 0 0 0 .095-1.5 15 15 0 0 0-.052-1.496 15 15 0 0 0-.202-1.487 15 15 0 0 0-.35-1.458 15 15 0 0 0-.494-1.416 15 15 0 0 0-.635-1.36 15 15 0 0 0-.764-1.287 15 15 0 0 0-.888-1.209 15 15 0 0 0-1.007-1.11z" text-decoration="none" fill="#b7b9bb" fill-opacity="1"/></g></svg>