<svg xmlns="http://www.w3.org/2000/svg" id="svg2" height="50" width="50" version="1.1"><g id="layer1" fill-rule="evenodd" transform="translate(6.486 -1035.546) scale(1.02857)" color="#000" color-rendering="auto" image-rendering="auto" shape-rendering="auto"><path id="path4198" stroke-linejoin="round" style="text-indent:0;text-decoration-line:none;text-decoration-style:solid;text-decoration-color:#000;text-transform:none;white-space:normal;isolation:auto;mix-blend-mode:normal;solid-color:#000" d="M18 1013.367a15 15 0 0 0-15 15 15 15 0 0 0 10.924 14.422l3.281 5.468c.44.733 1.152.733 1.592 0l3.273-5.457A15 15 0 0 0 33 1028.367a15 15 0 0 0-14.785-14.988 9 15 0 0 0-.084-.01 9 15 0 0 0-.043.001 15 15 0 0 0-.088-.003z" stroke="#707377" stroke-width="5" fill="#707377" text-decoration="none" fill-opacity="1" stroke-opacity="1"/><path id="path4180" stroke-linejoin="round" style="text-indent:0;text-decoration-line:none;text-decoration-style:solid;text-decoration-color:#000;text-transform:none;white-space:normal;isolation:auto;mix-blend-mode:normal;solid-color:#000" d="M18 1013.367a15 15 0 0 0-15 15 15 15 0 0 0 10.924 14.422l3.281 5.468c.44.733 1.152.733 1.592 0l3.273-5.457A15 15 0 0 0 33 1028.367a15 15 0 0 0-14.785-14.988 9 15 0 0 0-.084-.01 9 15 0 0 0-.043.001 15 15 0 0 0-.088-.003z" stroke="#fff" stroke-width="3" text-decoration="none"/><g id="colorized" fill="#b7b9bb" fill-opacity="1"><path id="path4148" style="text-indent:0;text-decoration-line:none;text-decoration-style:solid;text-decoration-color:#000;text-transform:none;white-space:normal;isolation:auto;mix-blend-mode:normal;solid-color:#000" d="M24.364 1018.2a9 14.789 0 0 0-.466-.715 9 14.789 0 0 0-.709-.909 9 14.789 0 0 0-.76-.794 9 14.789 0 0 0-.803-.661 9 14.789 0 0 0-.842-.526 9 14.789 0 0 0-.867-.388 9 14.789 0 0 0-.887-.243 9 14.789 0 0 0-.9-.095 9 14.789 0 0 0-.898.051 9 14.789 0 0 0-.892.2 9 14.789 0 0 0-.874.344 9 14.789 0 0 0-.85.488 9 14.789 0 0 0-.816.625 9 14.789 0 0 0-.772.754 9 14.789 0 0 0-.726.875 9 14.789 0 0 0-.666.993 9 14.789 0 0 0-.435.767 9 14.789 0 0 0-.553 1.165 9 14.789 0 0 0-.483 1.248 9 14.789 0 0 0-.402 1.32 9 14.789 0 0 0-.32 1.384 9 14.789 0 0 0-.237 1.424 9 14.789 0 0 0-.147 1.458 9 14.789 0 0 0-.058 1.478 9 14.789 0 0 0 .032 1.476 9 14.789 0 0 0 .121 1.465 9 14.789 0 0 0 .21 1.438 9 14.789 0 0 0 .297 1.396 9 14.789 0 0 0 .38 1.34 9 14.789 0 0 0 .459 1.27 9 14.789 0 0 0 .532 1.192 9 14.789 0 0 0 .605 1.095l5.568 9.15c.44.722 1.152.722 1.592 0l5.568-9.15a9 14.789 0 0 0 .435-.767 9 14.789 0 0 0 .553-1.164 9 14.789 0 0 0 .483-1.249 9 14.789 0 0 0 .402-1.32 9 14.789 0 0 0 .32-1.383 9 14.789 0 0 0 .236-1.425 9 14.789 0 0 0 .148-1.458 9 14.789 0 0 0 .057-1.478 9 14.789 0 0 0-.031-1.475 9 14.789 0 0 0-.121-1.466 9 14.789 0 0 0-.21-1.437 9 14.789 0 0 0-.297-1.397 9 14.789 0 0 0-.38-1.34 9 14.789 0 0 0-.459-1.269 9 14.789 0 0 0-.533-1.192 9 14.789 0 0 0-.604-1.095z" text-decoration="none"/><circle id="path4152" style="isolation:auto;mix-blend-mode:normal;solid-color:#000" cy="1028.3" cx="18" r="15"/></g></g></svg>