<?xml version="1.0" encoding="UTF-8" standalone="no"?>
<!-- Created with Inkscape (http://www.inkscape.org/) -->
<svg id="svg2" xmlns:rdf="http://www.w3.org/1999/02/22-rdf-syntax-ns#" xmlns="http://www.w3.org/2000/svg" height="42" viewBox="0 0 36 42.000001" width="36" version="1.1" xmlns:cc="http://creativecommons.org/ns#" xmlns:dc="http://purl.org/dc/elements/1.1/">
 <metadata id="metadata7">
  <rdf:RDF>
   <cc:Work rdf:about="">
    <dc:format>image/svg+xml</dc:format>
    <dc:type rdf:resource="http://purl.org/dc/dcmitype/StillImage"/>
    <dc:title/>
   </cc:Work>
  </rdf:RDF>
 </metadata>
 <g id="layer1" fill-rule="evenodd" transform="translate(0 -1010.4)">
  <path id="rect4159" style="color-rendering:auto;color:#000000;isolation:auto;mix-blend-mode:normal;shape-rendering:auto;solid-color:#000000;image-rendering:auto" d="m18 2.9668a15 15 0 0 0 -15 15 15 15 0 0 0 14 14.951v5.082h2v-5.068a15 15 0 0 0 14 -14.965 15 15 0 0 0 -15 -15z" transform="translate(0 1010.4)" stroke="#d3d7cf" stroke-width="5"/>
  <path id="path4172" style="color-rendering:auto;color:#000000;isolation:auto;mix-blend-mode:normal;shape-rendering:auto;solid-color:#000000;image-rendering:auto" d="m18 2.9668a15 15 0 0 0 -15 15 15 15 0 0 0 14 14.951v5.082h2v-5.068a15 15 0 0 0 14 -14.965 15 15 0 0 0 -15 -15z" transform="translate(0 1010.4)" stroke="#fff" stroke-width="3"/>
  <g id="qsdf">
   <g id="g4145">
    <rect id="rect4141" style="color-rendering:auto;color:#000000;isolation:auto;mix-blend-mode:normal;shape-rendering:auto;solid-color:#000000;image-rendering:auto" height="8" width="1" y="1040.4" x="18"/>
    <rect id="rect4143" style="color-rendering:auto;color:#000000;isolation:auto;mix-blend-mode:normal;shape-rendering:auto;solid-color:#000000;image-rendering:auto" height="8" width="1" y="1040.4" x="17" fill="#888a85"/>
   </g>
   <circle id="colorized" style="color-rendering:auto;color:#000000;isolation:auto;mix-blend-mode:normal;shape-rendering:auto;solid-color:#000000;image-rendering:auto" cx="18" cy="1028.3" r="15" fill="#babdb6"/>
  </g>
 </g>
</svg>
