<svg xmlns="http://www.w3.org/2000/svg" id="svg2" height="50" width="50" version="1.1"><g id="layer1" fill-rule="evenodd" transform="translate(6.486 -1035.337) scale(1.02857)" color="#000" color-rendering="auto" image-rendering="auto" shape-rendering="auto"><path id="rect4159" style="isolation:auto;mix-blend-mode:normal;solid-color:#000" d="M18 1013.367a15 15 0 0 0-15 15 15 15 0 0 0 14 14.95v5.083h2v-5.068a15 15 0 0 0 14-14.965 15 15 0 0 0-15-15z" stroke="#707377" stroke-width="5" fill="#707377" fill-opacity="1" stroke-opacity="1"/><path id="path4172" style="isolation:auto;mix-blend-mode:normal;solid-color:#000" d="M18 1013.367a15 15 0 0 0-15 15 15 15 0 0 0 14 14.95v5.083h2v-5.068a15 15 0 0 0 14-14.965 15 15 0 0 0-15-15z" stroke="#fff" stroke-width="3"/><g id="qsdf" fill-opacity="1"><g id="g4145"><path id="rect4141" style="isolation:auto;mix-blend-mode:normal;solid-color:#000" fill="#3b3f45" d="M18 1040.4h1v8h-1z"/><path id="rect4143" style="isolation:auto;mix-blend-mode:normal;solid-color:#000" fill="#707377" d="M17 1040.4h1v8h-1z"/></g><circle id="colorized" style="isolation:auto;mix-blend-mode:normal;solid-color:#000" cx="18" cy="1028.3" r="15" fill="#b7b9bb"/></g></g></svg>